<?xml version="1.0" encoding="utf-8"?>
<!-- Generator: Adobe Illustrator 26.0.2, SVG Export Plug-In . SVG Version: 6.00 Build 0)  -->
<svg version="1.1" id="Layer_1" xmlns="http://www.w3.org/2000/svg" xmlns:xlink="http://www.w3.org/1999/xlink" x="0px" y="0px"
	 viewBox="0 0 5000 5000" style="enable-background:new 0 0 5000 5000;" xml:space="preserve">
<style type="text/css">
	.st0{opacity:0.6;}
	.st1{fill:#FFFFFF;}
	.st2{fill:#DEFEFF;}
	.st3{opacity:0.5;fill:url(#SVGID_1_);enable-background:new    ;}
	.st4{fill:url(#SVGID_00000167373984707155585000000013932711523266526594_);}
	.st5{fill:#FFF37C;}
	.st6{opacity:0.5;enable-background:new    ;}
	.st7{opacity:0.6;fill:url(#SVGID_00000173156143514889473340000004168820813784844695_);enable-background:new    ;}
	.st8{fill:#666666;}
	.st9{fill:#757575;}
	.st10{fill:#595959;}
	.st11{fill:#1FBFC7;}
	.st12{fill:#D2F2F4;}
	.st13{fill:#94F3F7;}
	.st14{fill:#3A859E;}
	.st15{fill:#4DB2D4;}
	.st16{fill:#149CC4;}
	.st17{fill:#E6E6E6;}
	.st18{fill:#1F81C7;}
	.st19{fill:#5B5B5B;}
	.st20{fill:#B2B2B2;}
	.st21{fill:#4D4D4D;}
	.st22{fill:#5C5C5C;}
	.st23{fill:#CCCCCC;}
	.st24{fill:#DEB275;}
	.st25{fill:#FFCD8C;}
	.st26{fill:#B38358;}
	.st27{fill:#E8BB7F;}
	.st28{opacity:0.2;enable-background:new    ;}
	.st29{fill:#C99D62;}
	.st30{fill:#919191;}
	.st31{opacity:0.5;fill:url(#SVGID_00000011751362460416859540000007203244339288879544_);enable-background:new    ;}
	.st32{opacity:0.5;fill:url(#SVGID_00000086671787665460306270000012097526573775305088_);enable-background:new    ;}
	.st33{opacity:0.5;fill:url(#SVGID_00000101794113205792596320000007617113844746033597_);enable-background:new    ;}
	.st34{fill:url(#SVGID_00000130621241493131089890000000965258600707162272_);}
	.st35{fill:url(#SVGID_00000129916400722363304770000011686380832843626942_);}
	.st36{fill:#EDECEB;}
	.st37{fill:#EDCF85;}
	.st38{fill:#9EECF0;}
	.st39{fill:url(#SVGID_00000176749661798328448890000007184061264837233793_);}
	.st40{fill:#50E3EB;}
	.st41{fill:#D9C561;}
	.st42{fill:#E8DC68;}
	.st43{fill:#FFF39E;}
	.st44{fill:#E8DB52;}
	.st45{fill:#ADAFB3;}
	.st46{fill:#CACDD1;}
	.st47{opacity:0.5;fill:url(#SVGID_00000123413900896854691830000011306381583345364885_);enable-background:new    ;}
	.st48{fill:#E9FFF6;}
	.st49{fill:#189969;}
	.st50{fill:#1AAB75;}
	.st51{fill:#21CC8D;}
	.st52{fill:#1EBD82;}
	.st53{fill:#1CB079;}
	.st54{fill:#2B8A8F;}
	.st55{fill:#49C4CC;}
	.st56{fill:#74E2E8;}
	.st57{fill:#5AD0D6;}
</style>
<g class="st0">
	<g>
		<g>
			
				<rect x="4121.1" y="824.6" transform="matrix(0.4239 -0.9057 0.9057 0.4239 1255.9421 4447.1113)" class="st1" width="5" height="823.4"/>
		</g>
		<g>
			
				<rect x="3104.1" y="1216.7" transform="matrix(0.8882 -0.4594 0.4594 0.8882 -174.8548 1719.6296)" class="st1" width="684.9" height="5"/>
		</g>
		<g>
			
				<rect x="3820.3" y="1054" transform="matrix(0.9765 -0.2156 0.2156 0.9765 -209.3825 856.8427)" class="st1" width="5" height="668.3"/>
		</g>
		<g>
			
				<rect x="3390" y="2222.8" transform="matrix(0.5856 -0.8106 0.8106 0.5856 -754.0808 3854.2854)" class="st1" width="5" height="883.7"/>
		</g>
		<g>
			
				<rect x="4354.3" y="1435.7" transform="matrix(0.4661 -0.8847 0.8847 0.4661 593.8937 4899.8511)" class="st1" width="5" height="1044.3"/>
		</g>
		<g>
			<polygon class="st1" points="4085.9,2392.2 4086.9,2389.9 4500.2,1409.7 4494.7,1407.4 4493.7,1409.7 4080.4,2389.8 			"/>
		</g>
		<g>
			
				<rect x="2439.4" y="546.5" transform="matrix(0.1681 -0.9858 0.9858 0.1681 792.3037 3452.9204)" class="st1" width="5" height="1421.2"/>
		</g>
		<g>
			
				<rect x="2952.8" y="933.2" transform="matrix(0.6977 -0.7164 0.7164 0.6977 37.8366 2478.3169)" class="st1" width="5" height="522.2"/>
		</g>
		<g>
			
				<rect x="1966.3" y="2559.1" transform="matrix(0.4763 -0.8793 0.8793 0.4763 -1027.5509 3397.8574)" class="st1" width="744.9" height="5"/>
		</g>
		<g>
			
				<rect x="2099" y="2645" transform="matrix(0.8749 -0.4842 0.4842 0.8749 -957.111 1589.1069)" class="st1" width="997.8" height="5"/>
		</g>
		<g>
			
				<rect x="1766.6" y="2300.3" transform="matrix(0.9833 -0.1818 0.1818 0.9833 -382.9562 428.3112)" class="st1" width="755.9" height="5"/>
		</g>
		<g>
			<polygon class="st1" points="689.3,2198 1368,1664 1364.9,1660.1 686.2,2194.1 			"/>
		</g>
		<g>
			
				<rect x="1171.6" y="1171.6" transform="matrix(0.7297 -0.6838 0.6838 0.7297 -676.1079 1195.5432)" class="st1" width="5" height="562.6"/>
		</g>
		<g>
			
				<rect x="1233.1" y="1395.4" transform="matrix(0.5845 -0.8114 0.8114 0.5845 -488.6025 1841.5728)" class="st1" width="641.6" height="5"/>
		</g>
		<g>
			
				<rect x="1754.7" y="1137.4" transform="matrix(0.9997 -2.540196e-02 2.540196e-02 0.9997 -44.0025 45.2013)" class="st1" width="5" height="1234.3"/>
		</g>
		<g>
			
				<rect x="1843.4" y="1221.8" transform="matrix(9.414365e-02 -0.9956 0.9956 9.414365e-02 -23.7772 3380.8496)" class="st1" width="5" height="963.3"/>
		</g>
		<g>
			
				<rect x="1964.6" y="2306.7" transform="matrix(0.7997 -0.6004 0.6004 0.7997 -1185.2686 1708.0947)" class="st1" width="5" height="647.1"/>
		</g>
		<g>
			
				<rect x="2448.9" y="2033.1" transform="matrix(0.7939 -0.608 0.608 0.7939 -665.7737 2107.0476)" class="st1" width="652.7" height="5"/>
		</g>
		<g>
			
				<rect x="2418.3" y="1730.8" transform="matrix(0.9306 -0.3659 0.3659 0.9306 -560.8335 1023.9832)" class="st1" width="5" height="521.4"/>
		</g>
		<g>
			
				<rect x="3030" y="1773.3" transform="matrix(0.99 -0.1412 0.1412 0.99 -216.0285 506.9753)" class="st1" width="869.1" height="5"/>
		</g>
		<g>
			<rect x="3031.9" y="1837.2" class="st1" width="5" height="568.7"/>
		</g>
		<g>
			
				<rect x="1737.6" y="1072.4" transform="matrix(0.9926 -0.1213 0.1213 0.9926 -113.6962 281.3333)" class="st1" width="1034.5" height="5"/>
		</g>
		<g>
			
				<rect x="4072.4" y="2292.5" transform="matrix(0.9689 -0.2473 0.2473 0.9689 -429.2434 1171.9701)" class="st1" width="758.1" height="5"/>
		</g>
		<g>
			
				<rect x="3602.3" y="2653.6" transform="matrix(0.5291 -0.8485 0.8485 0.5291 -409.1612 4574.7979)" class="st1" width="630.2" height="5"/>
		</g>
		<g>
			
				<rect x="2677.4" y="1435.8" transform="matrix(0.1236 -0.9923 0.9923 0.1236 569.3455 4230.686)" class="st1" width="5" height="714.4"/>
		</g>
		<g>
			
				<rect x="2851.8" y="1604.3" transform="matrix(0.2282 -0.9736 0.9736 0.2282 819.1519 4247.0132)" class="st1" width="473.2" height="5"/>
		</g>
		<g>
			<polygon class="st1" points="3035.1,2409.7 3036.5,2408.5 3898.9,1715.6 3894.6,1710.2 3033.7,2402 2514.9,2230 2512.7,2236.5 
				2515.1,2237.3 			"/>
		</g>
		<g>
			<polygon class="st1" points="1774.8,2375.3 1775.9,2368.5 1773.4,2368.1 685.8,2192.3 684.7,2199 687.2,2199.4 			"/>
		</g>
		<g>
			<polygon class="st1" points="2324.6,1753 2326.9,1751.9 3146.1,1378.6 3143.2,1372.3 2321.8,1746.7 			"/>
		</g>
		<g>
			<polygon class="st1" points="1772.3,2377.4 1775.4,2373.8 2329.7,1749.2 2324.5,1744.7 1773.5,2365.7 1368.2,1654.3 
				1362.2,1657.7 			"/>
		</g>
		<g>
			
				<rect x="2030" y="1018" transform="matrix(0.7232 -0.6906 0.6906 0.7232 -433.8997 1803.7795)" class="st1" width="6.9" height="850.4"/>
		</g>
		<g>
			<polygon class="st1" points="3031.9,2409.3 3034.4,2409.3 4086.7,2392.1 4086.6,2385.2 4084.1,2385.3 3031.8,2402.5 			"/>
		</g>
		<g>
			<polygon class="st1" points="4081.5,2392 4088.1,2390.2 4087.4,2387.8 3897.4,1711.1 3890.8,1713 3891.5,1715.4 			"/>
		</g>
		<g>
			<polygon class="st1" points="3894.9,1718.3 3896.3,1717.5 4500.2,1412.8 4497.1,1406.6 3894.7,1710.7 3141.5,1372.3 
				3138.7,1378.6 			"/>
		</g>
	</g>
	<g>
		<g>
			
				<ellipse transform="matrix(0.9871 -0.1602 0.1602 0.9871 -167.9293 738.4697)" class="st1" cx="4496.5" cy="1410.8" rx="34.4" ry="34.4"/>
		</g>
		<g>
			
				<ellipse transform="matrix(0.9871 -0.1602 0.1602 0.9871 -329.8902 685.0496)" class="st1" cx="4084.1" cy="2388.7" rx="34.4" ry="34.4"/>
		</g>
		<g>
			<circle class="st1" cx="3894.8" cy="1714.5" r="34.4"/>
		</g>
		<g>
			
				<ellipse transform="matrix(0.9871 -0.1602 0.1602 0.9871 -121.6566 614.506)" class="st1" cx="3750.7" cy="1061.8" rx="34.4" ry="34.4"/>
		</g>
		<g>
			<circle class="st1" cx="1741.4" cy="1137.6" r="34.4"/>
		</g>
		<g>
			<circle class="st1" cx="2768.3" cy="1012.2" r="34.4"/>
		</g>
		<g>
			
				<ellipse transform="matrix(0.9874 -0.1585 0.1585 0.9874 -339.3527 136.7537)" class="st1" cx="687.7" cy="2196.1" rx="34.4" ry="34.4"/>
		</g>
		<g>
			<circle class="st1" cx="3142.4" cy="1376.5" r="34.4"/>
		</g>
		<g>
			<circle class="st1" cx="3034.4" cy="2405.9" r="34.4"/>
		</g>
		<g>
			
				<ellipse transform="matrix(0.7071 -0.7071 0.7071 0.7071 -145.1322 4052.0872)" class="st1" cx="4818.7" cy="2201.2" rx="34.4" ry="34.4"/>
		</g>
		<g>
			
				<ellipse transform="matrix(0.3827 -0.9239 0.9239 0.3827 -1096.5706 3101.9014)" class="st1" cx="1772.9" cy="2371.5" rx="34.4" ry="34.4"/>
		</g>
		<g>
			<circle class="st1" cx="1366.4" cy="1658.2" r="34.4"/>
		</g>
		<g>
			
				<ellipse transform="matrix(0.978 -0.2085 0.2085 0.978 -238.5157 232.0506)" class="st1" cx="981.7" cy="1247.7" rx="34.4" ry="34.4"/>
		</g>
		<g>
			
				<ellipse transform="matrix(0.7071 -0.7071 0.7071 0.7071 -555.498 2156.5583)" class="st1" cx="2325.4" cy="1748.8" rx="34.4" ry="34.4"/>
		</g>
		<g>
			
				<ellipse transform="matrix(0.3827 -0.9239 0.9239 0.3827 -510.737 3703.781)" class="st1" cx="2516.2" cy="2234.1" rx="34.4" ry="34.4"/>
		</g>
		<g>
			
				<ellipse transform="matrix(0.7071 -0.7071 0.7071 0.7071 -1409.8309 2374.4995)" class="st1" cx="2161.4" cy="2889.1" rx="34.4" ry="34.4"/>
		</g>
		<g>
			<circle class="st1" cx="3750.7" cy="2923.4" r="34.4"/>
		</g>
		<g>
			
				<ellipse transform="matrix(0.3827 -0.9239 0.9239 0.3827 175.8473 3937.5334)" class="st1" cx="3034.4" cy="1837.2" rx="34.4" ry="34.4"/>
		</g>
	</g>
</g>
<circle class="st2" cx="1943.2" cy="1524.8" r="52.5"/>
<path class="st2" d="M1958.3,1277.1l-2.2-33.7c-177-0.3-311.5,140.7-302.8,317.4l33.8,0.5C1679.6,1403.1,1799.8,1277,1958.3,1277.1z
	"/>
<path class="st2" d="M1962.8,1347l-2.2-33.7c-138.4,0.3-243.5,110.4-237.2,248.6l33.8,0.5C1752.1,1442.8,1843,1347.6,1962.8,1347z"
	/>
<path class="st2" d="M1967.2,1414.7l-2.2-33.7c-101,0.8-177.6,81-173.7,181.9l33.8,0.5C1822.4,1481.2,1884.8,1415.8,1967.2,1414.7z"
	/>
<g>
	
		<linearGradient id="SVGID_1_" gradientUnits="userSpaceOnUse" x1="1201.6584" y1="1136.4834" x2="2800.3982" y2="1903.6833" gradientTransform="matrix(1 0 0 -1 0 5000)">
		<stop  offset="0" style="stop-color:#969696"/>
		<stop  offset="1" style="stop-color:#FFFFFF"/>
	</linearGradient>
	<polygon class="st3" points="780.3,3820.9 1345.2,3937 3048.7,3221.9 2464.9,3139.2 	"/>
</g>
<linearGradient id="SVGID_00000049201658937999025770000015428893809110939322_" gradientUnits="userSpaceOnUse" x1="3159.6309" y1="2603.5977" x2="4218.7612" y2="2429.5479" gradientTransform="matrix(1.02 -1.000000e-02 2.000000e-02 -0.98 -114.83 5030.71)">
	<stop  offset="0" style="stop-color:#25D2D9"/>
	<stop  offset="1" style="stop-color:#74FFFF"/>
</linearGradient>
<path style="fill:url(#SVGID_00000049201658937999025770000015428893809110939322_);" d="M4135.4,2706.4l-857.5-94.3
	c-57.2-6.3-101.9-62.6-100.8-125.8l0,0c1.2-63.2,47.8-110.9,105-106.5l858,66.7c72.8,5.7,131.7,69.4,130.4,142.4l0,0
	C4269.2,2661.8,4208.2,2714.4,4135.4,2706.4z"/>
<polygon class="st5" points="3435.3,2450.8 3448.2,2499 3493.3,2503.1 3456.2,2528.9 3469.3,2577.5 3433.6,2544.7 3397.2,2569.9 
	3411.7,2524.6 3376.7,2492.4 3420.7,2496.4 "/>
<polygon class="st5" points="3584.4,2463.2 3598,2512.7 3645.4,2517 3606.5,2543.4 3620.2,2593.2 3582.6,2559.5 3544.4,2585.3 
	3559.6,2538.8 3522.8,2505.8 3569.1,2510 "/>
<polygon class="st5" points="3741.2,2476.3 3755.6,2527.1 3805.5,2531.6 3764.5,2558.6 3779,2609.8 3739.4,2575.1 3699.2,2601.4 
	3715.2,2553.8 3676.5,2519.8 3725.1,2524.3 "/>
<polygon class="st5" points="3906.4,2490.1 3921.6,2542.2 3974.2,2547 3931,2574.6 3946.3,2627.2 3904.6,2591.5 3862.3,2618.4 
	3879.1,2569.6 3838.2,2534.6 3889.5,2539.3 "/>
<polygon class="st5" points="4080.7,2504.6 4096.7,2558.2 4152.3,2563.3 4106.6,2591.5 4122.8,2645.6 4078.8,2608.8 4034.1,2636.4 
	4051.8,2586.2 4008.7,2550.2 4062.8,2555.1 "/>
<g class="st6">
	
		<linearGradient id="SVGID_00000043435023116346743100000014022795937410720402_" gradientUnits="userSpaceOnUse" x1="2972.929" y1="1399.2719" x2="4433.1689" y2="2139.9819" gradientTransform="matrix(1 0 0 -1 0 5000)">
		<stop  offset="0" style="stop-color:#969696"/>
		<stop  offset="1" style="stop-color:#FFFFFF"/>
	</linearGradient>
	<path style="opacity:0.6;fill:url(#SVGID_00000043435023116346743100000014022795937410720402_);enable-background:new    ;" d="
		M2133.6,3552.5l1850.7-643.7l1013.8,138.7l-1554.4,610.9c-60.5,30.5-128.8,42.2-196,33.8L2133.6,3552.5z"/>
</g>
<path class="st8" d="M3458.2,1195.1c-17-125.4-223.6-172.7-223.5-91.5l-893,42c-58.1,2.7-106.9,55.9-109.4,118.9l-86.9,2124.6
	c-2.6,62.9,41.7,119.9,99.4,127.4l888,115c5.3,12,15.8,23.6,32.7,34.3c109.2,15.6,164.6-27.3,186.9-81.1c7.4-15,11.5-31.5,12.1-48.2
	C3362,3506.7,3463.9,1224.5,3458.2,1195.1z"/>
<path class="st9" d="M3155.3,3664.9l-1013.5-131.3c-58.9-7.6-104.1-65.9-101.4-130.1l88.7-2169.4c2.6-64.2,52.4-118.6,111.7-121.4
	l1020.8-48c69-3.2,123.1,51,120.2,121.1L3285,3554.1C3282.1,3624.2,3223.8,3673.8,3155.3,3664.9z"/>
<path class="st10" d="M3171.1,3650.1c-4.6,0-9.2-0.3-13.8-0.9l-1013.5-131.3c-50.6-6.6-89.9-57.6-87.6-113.7l88.7-2169.4
	c2.3-56.2,45.6-103.8,96.6-106.2l1020.8-48c1.7-0.1,3.4-0.1,5.1-0.1c27.5,0,52.8,10.6,71.1,29.7c18.8,19.6,28.6,46.3,27.4,75
	l-96.9,2368.2C3266.9,3608.6,3224.7,3650.1,3171.1,3650.1z"/>
<polygon class="st1" points="3230.5,3552.6 2087.2,3413.9 2177.5,1205.4 3328.4,1158.8 "/>
<polygon class="st11" points="3319.3,1380.9 2169.1,1410.3 2177.5,1205.4 3328.4,1158.8 "/>
<path class="st1" d="M3227.4,1293.9l-69.5,2.2c-1.3,0.1-2.6-0.8-2.9-2.1l-11.5-41.6c-0.5-1.9,0.7-3.8,2.6-4.2
	c0.2-0.1,0.4-0.1,0.6-0.1l96.1-3.4c1,0,2,0.4,2.5,1.2c0.6,0.9,0.7,1.9,0.4,2.9l-15.1,42.8
	C3230.1,1292.9,3228.8,1293.9,3227.4,1293.9z M3160.5,1289.6l64.9-2.1l12.8-36.2l-87.4,3L3160.5,1289.6z"/>
<path class="st1" d="M3220.9,1312l-59.2,1.8c-1.6,0-3-1.2-3-2.9c0-0.1,0-0.2,0-0.3c0.1-1.8,1.5-3.2,3.3-3.3l56.9-1.8
	c3.2-0.1,5.9-2.6,6.2-5.8c0.4-2.5-0.5-5-2.1-5.7l22.7-64.6c0.5-1.4,1.7-2.3,3.1-2.4l20.9-0.8c1.7,0,3,1.3,3.1,2.9c0,0.1,0,0.1,0,0.2
	c-0.1,1.8-1.5,3.3-3.4,3.4l-18.5,0.7l-20.9,60C3234.6,1301.5,3227.5,1311.8,3220.9,1312z"/>
<path class="st1" d="M3180.6,1324.1c-0.2,4.1-3.5,7.5-7.6,7.7c-3.7,0.1-6.9-2.8-7-6.5c0-0.2,0-0.5,0-0.7c0.2-4.1,3.5-7.4,7.6-7.7
	c3.7-0.1,6.9,2.8,7,6.5C3180.6,1323.6,3180.6,1323.8,3180.6,1324.1z"/>
<path class="st1" d="M3217.5,1323c-0.2,4.2-3.5,7.5-7.6,7.7c-3.8,0.1-6.9-2.8-7-6.6c0-0.2,0-0.4,0-0.7c0.2-4.1,3.5-7.5,7.6-7.7
	c3.8-0.1,6.9,2.8,7,6.6C3217.5,1322.6,3217.5,1322.8,3217.5,1323z"/>
<path class="st1" d="M3194.3,1295c-1.6,0.1-3-1.2-3.1-2.8c0-0.1,0-0.2,0-0.3l1.7-42.2c0.1-1.8,1.5-3.2,3.3-3.3
	c1.6-0.1,3,1.2,3.1,2.8c0,0.1,0,0.2,0,0.3l-1.7,42.2C3197.5,1293.5,3196.1,1294.9,3194.3,1295z"/>
<path class="st1" d="M3176.6,1295.5c-1.5,0.1-2.8-1-3-2.4l-7.7-41.8c-0.3-1.8,0.8-3.5,2.6-4c1.5-0.5,3.2,0.4,3.6,2
	c0,0.1,0.1,0.2,0.1,0.3l7.7,41.8c0.3,1.8-0.8,3.5-2.6,4C3177.1,1295.5,3176.8,1295.5,3176.6,1295.5z"/>
<path class="st1" d="M3211.3,1294.4c-0.2,0-0.3,0-0.5,0c-1.6-0.2-2.8-1.7-2.6-3.4c0-0.1,0-0.1,0-0.2l7.8-42.4c0.3-1.8,1.9-3,3.7-2.9
	c1.6,0.2,2.8,1.7,2.6,3.4c0,0.1,0,0.1,0,0.2l-7.8,42.4C3214.3,1293.2,3212.9,1294.4,3211.3,1294.4z"/>
<path class="st1" d="M3234.9,1272.8l-82.7,2.7c-1.6,0-3-1.2-3-2.8c0-0.1,0-0.2,0-0.3c0.1-1.8,1.5-3.2,3.3-3.3l82.7-2.8
	c1.7,0,3,1.3,3.1,2.9c0,0.1,0,0.1,0,0.2C3238.2,1271.3,3236.8,1272.7,3234.9,1272.8z"/>
<path class="st1" d="M3272.1,1234.3l-18.8,0.7l0.4-9.8l18.8-0.7c2.2-0.1,4.1,1.6,4.2,3.8c0,0.2,0,0.4,0,0.5v0.9
	C3276.6,1232.2,3274.6,1234.2,3272.1,1234.3z"/>
<polygon class="st12" points="2932,1339.6 2505.4,1352 2507.1,1310.6 2933.7,1296.9 "/>
<path class="st11" d="M2270,1622.4c-14.8,0-29-6-39.2-16.7c-11.7-12-18-29.2-17.2-47.1c1.4-35.3,29.2-64.6,62-65.2l912.6-17.5
	c17.5-0.5,34.5,6.4,46.8,18.9c12.6,12.8,19.1,30.2,18.3,48.8c-1.6,37.8-33.1,69-70.3,69.3v-3.5v3.5l-912.3,9.4L2270,1622.4z
	 M3189.4,1482.9h-1.2l-912.6,17.5c-29.1,0.6-53.8,26.8-55.1,58.5c-0.7,16,4.9,31.3,15.2,42c9.1,9.5,21.6,14.8,34.7,14.6l912.3-9.4
	c33.6-0.3,62-28.4,63.4-62.6c0.7-16.7-5.1-32.2-16.3-43.6C3219.2,1488.9,3204.6,1482.8,3189.4,1482.9L3189.4,1482.9z"/>
<path class="st11" d="M3182.9,1609.5l-73.9,0.8l5.3-129.4l73.9-1.4c35.4-0.7,63,28,61.5,64.1l0,0
	C3248.2,1579.6,3218.2,1609.1,3182.9,1609.5z"/>
<path class="st13" d="M2641.9,2182l-417-12.4c-11.4-0.3-20.2-10.6-19.7-23l16.1-393.1c0.5-12.4,10.1-22.4,21.5-22.4l417.5-0.9
	c12.1,0,21.5,10.3,21,23.1l-16.6,406.3C2664.2,2172.2,2654,2182.3,2641.9,2182z"/>
<polygon class="st11" points="2758.8,1733.5 2756.6,1787.2 3253.8,1788.2 3256.1,1732.6 "/>
<polygon class="st11" points="2755.4,1815.6 2753.2,1869.3 3206.9,1872.7 3209.1,1817.3 "/>
<polygon class="st11" points="2752.1,1897.6 2749.9,1951.3 3108.7,1956.1 3110.9,1901 "/>
<path class="st11" d="M3216.9,2199l-453.4-13.4c-10.4-0.3-18.5-9.4-18-20.3l4.2-102.9c0.4-10.9,9.2-19.6,19.6-19.3l453.6,8.9
	c10.9,0.3,19.5,9.3,19.3,20.2c0,0.2,0,0.4,0,0.6l-4.4,106.4C3237.4,2190.4,3228.1,2199.2,3216.9,2199z"/>
<path class="st1" d="M2796.8,2129.6l-3.6,10l-8.9-0.2l16-43.4l11.4,0.3l13.1,44.2l-9.6-0.2l-3.1-10.2L2796.8,2129.6z M2810.5,2122.2
	c-2.6-9.4-4.2-15.3-5.1-19.3h-0.1c-1.2,4.3-3.6,11.1-6.2,19L2810.5,2122.2z"/>
<path class="st1" d="M2831.9,2096.8l16.7,0.4c12.2,0.3,20,8.9,19.5,21.9c-0.5,12.8-8.8,22.3-21.7,22l-16.3-0.4L2831.9,2096.8z
	 M2839.5,2133.2l6.9,0.2c8.1,0.2,11.9-6,12.3-14.6c0.3-7.2-2.8-13.9-11.1-14.1l-6.9-0.2L2839.5,2133.2z"/>
<path class="st1" d="M2876.9,2097.8l16.8,0.4c12.3,0.3,20.1,8.9,19.6,22c-0.5,12.9-8.8,22.4-21.8,22l-16.4-0.4L2876.9,2097.8z
	 M2884.6,2134.4l6.9,0.2c8.1,0.2,12-6,12.4-14.6c0.3-7.2-2.8-13.9-11.1-14.1l-6.9-0.2L2884.6,2134.4z"/>
<path class="st1" d="M2945.5,2107.2l-13-0.3l0.3-7.8l35.2,0.8l-0.3,7.8l-13-0.3l-1.5,36.4l-9.2-0.2L2945.5,2107.2z"/>
<path class="st1" d="M3011.1,2123c-0.5,12.4-8.1,22.8-22.1,22.4c-13.5-0.4-20.1-10.6-19.6-23.4s8.7-22.6,22-22.3
	C3004,2100.1,3011.7,2109.4,3011.1,2123z M2979,2122.1c-0.4,8.7,3.1,15.3,10.7,15.5c8.3,0.2,11.5-6.9,11.9-14.8
	c0.4-8.4-2.8-15.1-10.8-15.3C2982.9,2107.4,2979.3,2113.5,2979,2122.1L2979,2122.1z"/>
<path class="st1" d="M3070.9,2133.2c-2,8.3-8.4,14.2-19.3,13.9c-13.8-0.4-19.8-10.5-19.3-23.2c0.5-12.2,7.7-22.9,21.6-22.6
	c11.6,0.3,16.9,7.3,17.7,14.9l-9.4-0.2c-0.8-3.5-3-7-8.9-7.1c-7.7-0.2-11,6.9-11.3,15c-0.3,7.5,2,15.5,10.3,15.7
	c6.2,0.2,8.2-4,9.2-6.6L3070.9,2133.2z"/>
<path class="st1" d="M3086.1,2137.1l-3.8,10.2l-9.3-0.2l16.6-44.2l11.8,0.3l13.7,45.1l-9.9-0.3l-3.2-10.4L3086.1,2137.1z
	 M3100.4,2129.5c-2.7-9.5-4.4-15.6-5.3-19.7h0c-1.3,4.4-3.7,11.3-6.5,19.4L3100.4,2129.5z"/>
<path class="st1" d="M3130.8,2130.6l-0.7,17.9l-9.3-0.2l1.8-44.7l19.3,0.4c9.6,0.2,14.5,5.7,14.2,12.6c-0.2,6-3.6,9.2-6.8,10.4
	c2.1,0.9,5.4,3.3,5,11.3l-0.1,2.2c-0.1,3-0.3,6.4,0.3,8.5l-9-0.2c-0.7-2-0.7-5.4-0.5-10.1v-0.6c0.2-4.9-0.9-7.2-8-7.4L3130.8,2130.6
	z M3131.2,2122.9l7.9,0.2c5.2,0.1,7.3-1.8,7.4-5.6s-2.1-5.8-6.8-5.9l-8.1-0.2L3131.2,2122.9z"/>
<path class="st1" d="M3174.1,2112.7l-13.4-0.3l0.3-7.9l36.4,0.9l-0.3,8l-13.4-0.3l-1.5,37l-9.5-0.2L3174.1,2112.7z"/>
<path class="st14" d="M2535.1,2054.9l-8.1-2.7c0.2-0.6,17-65.2,19.2-89.9c2.6-29.7-5.1-56-22.1-76.1c-19.4-22.9-49.7-36.2-83.1-36.4
	c-32.5-0.2-61.1,11.3-80.6,32.5c-17.9,19.4-27.2,46-26.9,77c0.3,24.5,9.3,86.3,9.4,87l-8.2,1.6c-0.4-2.6-9.2-63-9.5-88.2
	c-0.4-33.5,9.8-62.4,29.4-83.6c21.2-22.9,52-35.5,86.8-35.3c35.7,0.2,68.2,14.5,89.1,39.2c18.6,22,27,50.7,24.2,82.9
	C2552.5,1988.7,2536,2052.4,2535.1,2054.9z"/>
<path class="st14" d="M2337,2006.3l8.3,62.6c0.9,6.8,6.4,11.5,12.6,11.2l-11.7-88.9C2340.1,1993,2336.1,1999.5,2337,2006.3z"/>
<path class="st14" d="M2359.3,2079.9l23.6-4.2l-11.9-89.2l-23.6,4.3c-0.4,0.1-0.9,0.2-1.3,0.3l11.7,88.9
	C2358.4,2080,2358.9,2080,2359.3,2079.9z"/>
<path class="st15" d="M2388.8,2084.6L2388.8,2084.6c-7.2,1.3-13.9-4-14.9-11.7l-10.7-80.6c-1-7.7,4-15.1,11.2-16.4l0,0
	c7.2-1.3,13.9,3.8,14.9,11.6l10.8,80.7C2401.1,2076,2396.1,2083.3,2388.8,2084.6z"/>
<path class="st14" d="M2537.3,2010.7l-15.2,62.6c-1.6,6.8-7.7,11.1-14,10.4l21.4-88.9C2535.5,1997.1,2539,2003.9,2537.3,2010.7z"/>
<path class="st14" d="M2506.6,2083.4l-23.5-6l21.5-88.9l23.6,5.8c0.4,0.1,0.9,0.2,1.3,0.4l-21.4,88.9
	C2507.6,2083.6,2507.1,2083.6,2506.6,2083.4z"/>
<path class="st15" d="M2476.2,2086L2476.2,2086c7.2,1.8,14.5-2.9,16.4-10.6l19.4-80.4c1.9-7.7-2.4-15.4-9.6-17.2l0,0
	c-7.2-1.8-14.5,3.1-16.4,10.8l-19.4,80.2C2464.8,2076.5,2469.1,2084.2,2476.2,2086z"/>
<path class="st13" d="M2617.1,2786.4l-416.2-30.1c-11.4-0.8-20.1-11.5-19.6-23.9l16.1-393.1c0.5-12.4,10.1-22,21.5-21.6l416.8,16.9
	c12.1,0.5,21.5,11.2,21,24l-16.6,406.3C2639.4,2777.6,2629.2,2787.2,2617.1,2786.4z"/>
<polygon class="st11" points="2733.9,2342.1 2731.7,2395.9 3228.1,2417.9 3230.3,2362.3 "/>
<polygon class="st11" points="2730.6,2424.2 2728.4,2477.9 3181.2,2500.6 3183.4,2445.2 "/>
<polygon class="st11" points="2727.2,2506.2 2725,2559.9 3083.2,2580 3085.4,2524.9 "/>
<path class="st11" d="M3191.2,2827.9l-452.6-32.8c-10.4-0.8-18.4-10.2-18-21.1l4.2-102.9c0.4-10.9,9.2-19.2,19.6-18.6l452.8,28.2
	c11.2,0.8,19.7,10.4,19.2,21.7l-4.4,106.5c-0.3,10.8-9.3,19.3-20,19C3191.7,2828,3191.4,2828,3191.2,2827.9z"/>
<path class="st1" d="M2771.8,2740.5l-3.6,9.9l-8.9-0.6l16-42.8l11.4,0.8l13.1,44.8l-9.6-0.7l-3.1-10.4L2771.8,2740.5z
	 M2785.4,2733.7c-2.6-9.5-4.2-15.5-5.1-19.5h-0.1c-1.2,4.2-3.6,11-6.2,18.8L2785.4,2733.7z"/>
<path class="st1" d="M2806.8,2709.1l16.7,1.1c12.2,0.8,20,9.8,19.4,22.8c-0.5,12.8-8.8,22-21.6,21.1l-16.3-1.1L2806.8,2709.1z
	 M2814.4,2745.9l6.8,0.5c8.1,0.6,11.9-5.5,12.3-14.1c0.3-7.2-2.8-14-11.1-14.6l-6.9-0.5L2814.4,2745.9z"/>
<path class="st1" d="M2851.8,2712.1l16.8,1.1c12.3,0.8,20.1,9.8,19.6,22.9c-0.5,12.9-8.8,22.1-21.8,21.1l-16.4-1.1L2851.8,2712.1z
	 M2859.5,2749l6.9,0.5c8.1,0.6,12-5.5,12.4-14.1c0.3-7.2-2.8-14-11.1-14.6l-6.9-0.5L2859.5,2749z"/>
<path class="st1" d="M2920.2,2724.4l-13-0.9l0.3-7.8l35.2,2.3l-0.3,7.8l-13-0.9l-1.5,36.4l-9.2-0.6L2920.2,2724.4z"/>
<path class="st1" d="M2985.8,2743c-0.5,12.4-8.1,22.5-22.1,21.5c-13.5-0.9-20.1-11.5-19.6-24.2s8.7-22.2,22-21.4
	C2978.7,2719.8,2986.3,2729.4,2985.8,2743z M2953.7,2740.8c-0.4,8.7,3,15.5,10.6,16c8.3,0.6,11.5-6.4,11.8-14.3
	c0.4-8.4-2.8-15.2-10.7-15.8C2957.6,2726.2,2954,2732.2,2953.7,2740.8L2953.7,2740.8z"/>
<path class="st1" d="M3045.4,2755.8c-2,8.2-8.4,13.9-19.3,13.1c-13.7-1-19.8-11.4-19.3-24.1c0.5-12.2,7.6-22.6,21.6-21.7
	c11.6,0.8,16.9,8.1,17.6,15.6l-9.4-0.6c-0.8-3.6-3-7.1-8.9-7.5c-7.7-0.5-11,6.5-11.3,14.6c-0.3,7.5,1.9,15.6,10.3,16.2
	c6.2,0.4,8.2-3.6,9.1-6.2L3045.4,2755.8z"/>
<path class="st1" d="M3060.6,2760.3l-3.8,10.1l-9.3-0.6l16.6-43.6l11.8,0.8l13.7,45.7l-9.9-0.7l-3.2-10.6L3060.6,2760.3z
	 M3074.9,2753.3c-2.7-9.7-4.4-15.8-5.3-19.9h-0.1c-1.2,4.3-3.7,11.2-6.5,19.1L3074.9,2753.3z"/>
<path class="st1" d="M3105.3,2755.7l-0.7,17.9l-9.3-0.6l1.8-44.7l19.2,1.3c9.5,0.6,14.5,6.3,14.2,13.3c-0.2,6-3.6,9-6.8,10.2
	c2.1,1,5.4,3.5,5,11.6l-0.1,2.2c-0.1,3-0.3,6.4,0.3,8.6l-9-0.6c-0.7-2-0.7-5.4-0.5-10.1v-0.6c0.2-4.9-0.9-7.3-8-7.8L3105.3,2755.7z
	 M3105.6,2748l7.9,0.5c5.1,0.3,7.3-1.5,7.4-5.2s-2.1-5.9-6.8-6.2l-8.1-0.5L3105.6,2748z"/>
<path class="st1" d="M3148.4,2739.6l-13.4-0.9l0.3-7.9l36.3,2.4l-0.3,8l-13.4-0.9l-1.5,37l-9.5-0.7L3148.4,2739.6z"/>
<path class="st14" d="M2525.9,2656.1c-0.1-38.6-75-67.1-75-67.1s-65.2-89.6-92-133.9c-49.2,19.2-61.8,45.3-56.5,92
	c24.4-21.6,62.9,22.7,109.1,101.6L2525.9,2656.1z"/>
<path class="st14" d="M2302.3,2547.1l12,99.5l7.8,0.5c4-44.3,10.9-94.4,36-76.8C2359.7,2530.6,2303.1,2527.5,2302.3,2547.1z"/>
<path class="st13" d="M2591.9,3404.6l-415.5-48.3c-11.3-1.3-20.1-12.4-19.6-24.8l16.1-393.1c0.5-12.4,10.1-21.6,21.5-20.7l416,35
	c12.1,1,21.4,12.2,20.9,25l-16.6,406.3C2614.1,3396.7,2603.9,3406,2591.9,3404.6z"/>
<polygon class="st11" points="2708.4,2964.6 2706.2,3018.3 3201.7,3062.1 3204,3006.5 "/>
<polygon class="st11" points="2705.1,3046.7 2702.9,3100.4 3154.9,3142.9 3157.2,3087.4 "/>
<polygon class="st11" points="2701.7,3128.7 2699.5,3182.4 3057.1,3218.1 3059.3,3163 "/>
<path class="st11" d="M3164.9,3471.2l-451.9-52.5c-10.4-1.2-18.4-11-18-21.9l4.2-102.9c0.4-10.9,9.2-18.8,19.6-17.7l452,48
	c11.1,1.2,19.6,11.3,19.2,22.5l-4.4,106.4C3185.2,3464.4,3175.9,3472.5,3164.9,3471.2z"/>
<path class="st1" d="M2746.2,3365.4l-3.6,9.7l-8.9-1l15.9-42.1l11.3,1.2l13.1,45.5l-9.5-1.1l-3-10.5L2746.2,3365.4z M2759.9,3359.1
	c-2.6-9.6-4.2-15.7-5.1-19.8h-0.1c-1.2,4.2-3.6,10.8-6.2,18.5L2759.9,3359.1z"/>
<path class="st1" d="M2781.2,3335.4l16.7,1.8c12.2,1.4,19.9,10.6,19.4,23.7c-0.5,12.8-8.7,21.6-21.6,20.2l-16.2-1.8L2781.2,3335.4z
	 M2788.8,3372.6l6.8,0.8c8,0.9,11.9-5,12.2-13.6c0.3-7.2-2.8-14.1-11-15.1l-6.9-0.8L2788.8,3372.6z"/>
<path class="st1" d="M2826.1,3340.4l16.8,1.8c12.3,1.4,20.1,10.7,19.5,23.8c-0.5,12.9-8.8,21.7-21.7,20.2l-16.4-1.9L2826.1,3340.4z
	 M2833.8,3377.7l6.9,0.8c8.1,0.9,12-5,12.3-13.6c0.3-7.2-2.8-14.2-11.1-15.1l-6.9-0.8L2833.8,3377.7z"/>
<path class="st1" d="M2894.4,3355.7l-13-1.4l0.3-7.8l35.1,3.9l-0.3,7.8l-12.9-1.4l-1.5,36.4l-9.2-1L2894.4,3355.7z"/>
<path class="st1" d="M2959.8,3377.2c-0.5,12.4-8.1,22.2-22,20.6c-13.5-1.5-20.1-12.4-19.6-25.1s8.7-21.9,22-20.4
	C2952.8,3353.6,2960.4,3363.6,2959.8,3377.2z M2927.8,3373.5c-0.4,8.7,3,15.6,10.6,16.5c8.3,0.9,11.5-5.9,11.8-13.8
	c0.4-8.4-2.7-15.4-10.7-16.3C2931.7,3359.1,2928.1,3364.9,2927.8,3373.5L2927.8,3373.5z"/>
<path class="st1" d="M3019.4,3392.5c-2,8.2-8.4,13.6-19.2,12.3c-13.7-1.6-19.8-12.3-19.2-24.9c0.5-12.2,7.6-22.4,21.6-20.8
	c11.5,1.3,16.9,8.8,17.6,16.4l-9.4-1c-0.8-3.6-3-7.3-8.9-7.9c-7.7-0.9-10.9,6-11.3,14.1c-0.3,7.5,1.9,15.7,10.3,16.7
	c6.1,0.7,8.2-3.3,9.1-5.9L3019.4,3392.5z"/>
<path class="st1" d="M3034.6,3397.7l-3.8,9.9l-9.2-1l16.6-43l11.8,1.3l13.6,46.4l-9.9-1.1l-3.2-10.7L3034.6,3397.7z M3048.8,3391.4
	c-2.7-9.8-4.4-16-5.3-20.2h-0.1c-1.2,4.3-3.7,11-6.5,18.9L3048.8,3391.4z"/>
<path class="st1" d="M3079.1,3395.1l-0.7,17.9l-9.2-1.1l1.8-44.7l19.2,2.1c9.5,1.1,14.5,7,14.2,13.9c-0.2,6-3.6,8.9-6.8,9.9
	c2.1,1.1,5.3,3.7,5,11.8l-0.1,2.2c-0.1,3-0.3,6.4,0.3,8.6l-9-1c-0.7-2-0.7-5.4-0.5-10.2v-0.6c0.2-4.9-0.9-7.4-8-8.1L3079.1,3395.1z
	 M3079.4,3387.4l7.9,0.9c5.1,0.6,7.3-1.2,7.4-4.9s-2.1-6-6.8-6.5l-8.1-0.9L3079.4,3387.4z"/>
<path class="st1" d="M3122.2,3380.9l-13.4-1.5l0.3-7.9l36.2,4l-0.3,8l-13.4-1.5l-1.5,37l-9.5-1.1L3122.2,3380.9z"/>
<path class="st16" d="M2426.7,3020.7c-1.5-5.6-2.4-11.4-2.7-17.2l-4.3-0.4c-0.4,4.5-1.2,9-2.5,13.4c-3.5,11.7-12.4,19.9-22.5,19.6
	c-10-1.5-18.1-11.3-20.6-23.4c-0.9-4.5-1.4-9.1-1.4-13.7l-4.3-0.4c-0.7,5.6-2,11.2-4,16.5c-4.7,12.2-12.2,23.1-21.8,31.8l4,68.3
	l42.9,4.2l3.8,0.4l43.1,4.2l9.7-67.5C2437.1,3046.1,2430.5,3033.9,2426.7,3020.7z"/>
<path class="st16" d="M2484.8,3308.6c-20.2,18.7-177.5,3.2-200-22.1c13.2-62.7,29.6-123,61.8-171.3l89.8,8.8
	C2462,3171.3,2475,3237.4,2484.8,3308.6z"/>
<path class="st1" d="M2407.8,3137.1c-2.9,0-6-0.1-9.4-0.5c-36.4-3.6-52.8-21.6-53.5-22.3c-0.5-0.6-0.5-1.5,0.1-2c0,0,0,0,0,0
	c0.6-0.5,1.5-0.5,2,0.1c0,0,0,0,0,0c0.2,0.2,16.5,17.9,51.7,21.4c31.4,3.1,36.3-10.1,36.3-10.2c0.2-0.7,1-1.1,1.8-0.9
	c0.7,0.2,1.1,1,0.9,1.8c0,0,0,0,0,0C2437.5,3125,2433.3,3137.1,2407.8,3137.1z"/>
<path class="st1" d="M2393.9,3162.3c-1.3-0.1-2.5-0.8-3.1-2c-6.1-9.2,10.9-23.9,12.9-25.6l3.1-2.6l-0.9,4
	c-1.3,5.9-5.9,25.1-11.4,26.2C2394.3,3162.3,2394.1,3162.3,2393.9,3162.3z M2402.1,3139.9c-5.3,5.3-12.3,13.9-9,18.8
	c0.3,0.5,0.7,0.8,0.9,0.8C2396.1,3159.1,2399.6,3149.7,2402.1,3139.9L2402.1,3139.9z"/>
<path class="st1" d="M2402.9,3139.1l0.2-3.4c0.1-0.9,1.4-21.6,9.4-27.4c1.9-1.5,4.4-2,6.8-1.4c2.9,0.7,3.9,2.4,4.2,3.7
	c2,7.8-16,24.4-18.1,26.3L2402.9,3139.1z M2417.3,3109.4c-1.1,0-2.2,0.4-3.1,1.1c-4.7,3.5-7.1,14.8-7.9,21.7
	c7-6.9,15.6-16.9,14.5-21c-0.1-0.5-0.5-1.2-2.2-1.6C2418.2,3109.5,2417.7,3109.4,2417.3,3109.4z"/>
<path class="st1" d="M2429.1,3162.8c-0.6,0-1.1-0.4-1.3-0.9c-4.4-11-13-19.9-23.8-24.8c-0.7-0.3-1.1-1.1-0.8-1.8s1.1-1.1,1.8-0.8
	c11.6,5.1,20.7,14.6,25.4,26.4c0.3,0.7-0.1,1.5-0.8,1.8C2429.5,3162.7,2429.3,3162.8,2429.1,3162.8z"/>
<path class="st17" d="M1954.7,2748.5c-0.3,0-0.5,0-0.8,0l-607.9-40.3c-6.5-0.4-11.3-6-10.9-12.5c0-0.6,0.1-1.2,0.3-1.8
	c25.9-113,58.8-185.6,100.5-222c2.3-2,5.3-3.1,8.4-2.9l610.3,35.5c6.5,0.4,11.4,5.9,11,12.4c-0.1,2.4-1.1,4.8-2.6,6.7
	c-51.1,63-83.6,135.4-96.8,215.1C1965.3,2744.3,1960.4,2748.4,1954.7,2748.5z M1361.4,2685.7l583.6,38.7
	c13.2-71.6,42.6-139.3,86-197.8l-583.2-33.9C1413.6,2525,1384.6,2589.9,1361.4,2685.7L1361.4,2685.7z"/>
<path class="st18" d="M2029.6,2501.6c-2-5.9-5.8-11.8-11.5-12.4l-552-34.3c-23.3,4.2-23.3,50.8-3.2,52.1l552,34.3
	c6.6-1.4,10.9-6.3,13.6-14.1C2018.1,2526.8,2015.4,2501.8,2029.6,2501.6z"/>
<path class="st19" d="M1355.5,3917.4L1355.5,3917.4c-23-0.1-41.7-18.7-41.8-41.8V3801c0.1-23,18.7-41.7,41.8-41.8l0,0
	c23,0.1,41.7,18.7,41.8,41.8v74.6C1397.3,3898.6,1378.6,3917.3,1355.5,3917.4z"/>
<polygon class="st20" points="1313.8,3801 1313.8,3899.3 1320.4,3894.6 1320.4,3793 "/>
<path class="st21" d="M1347.4,3807.1c0,0,40.8-9.6,59.7,27.9s-37.3,101.3-51.2,103.8s-40.2-0.6-52.5-25S1316,3820.5,1347.4,3807.1z"
	/>
<ellipse transform="matrix(0.3489 -0.9372 0.9372 0.3489 -2751.1724 3775.0173)" class="st21" cx="1341.2" cy="3867.5" rx="63.4" ry="42.2"/>
<ellipse transform="matrix(0.3489 -0.9372 0.9372 0.3489 -2743.2712 3805.8757)" class="st21" cx="1367.4" cy="3877.2" rx="63.4" ry="42.2"/>
<ellipse transform="matrix(0.3489 -0.9372 0.9372 0.3489 -2743.2712 3805.8757)" class="st19" cx="1367.4" cy="3877.2" rx="53" ry="35.2"/>
<path class="st19" d="M1297.2,3798.6h-0.1v-1.4C1297.1,3797.7,1297.1,3798.1,1297.2,3798.6z"/>
<path class="st20" d="M1355.5,3759.2L1355.5,3759.2c-23,0-41.8,18.5-41.8,41.1l6.6,12.9c0-23.1,34.6-23,34.6,0l0.6,81
	c0,22.9,39.8,6.8,41.8-17.9v-75.9C1397.3,3777.8,1378.5,3759.2,1355.5,3759.2z"/>
<path class="st22" d="M813.9,3666.1L813.9,3666.1c21.3,0,38.5,17.2,38.5,38.5v68.7c0,21.3-17.2,38.5-38.5,38.5l0,0
	c-21.3,0-38.5-17.2-38.5-38.5v-68.7C775.5,3683.4,792.7,3666.1,813.9,3666.1z"/>
<polygon class="st20" points="775.5,3704.6 775.5,3795.2 781.5,3790.9 781.5,3697.3 "/>
<path class="st21" d="M806.4,3710.2c0,0,37.6-8.9,55,25.7s-34.4,93.4-47.2,95.7s-37.1-0.5-48.4-23S777.5,3722.5,806.4,3710.2z"/>
<ellipse transform="matrix(0.3489 -0.9372 0.9372 0.3489 -3007.8025 3202.3828)" class="st21" cx="800.8" cy="3765.8" rx="58.4" ry="38.9"/>
<ellipse transform="matrix(0.3489 -0.9372 0.9372 0.3489 -3000.5134 3230.8306)" class="st21" cx="824.9" cy="3774.8" rx="58.4" ry="38.9"/>
<ellipse transform="matrix(0.3489 -0.9372 0.9372 0.3489 -3000.5227 3230.8369)" class="st19" cx="824.9" cy="3774.8" rx="48.8" ry="32.4"/>
<path class="st19" d="M760.2,3702.4h-0.1v-1.3C760.1,3701.5,760.1,3701.9,760.2,3702.4z"/>
<path class="st20" d="M814,3666.1L814,3666.1c-21.2,0-38.5,17-38.5,37.9l6.1,11.9c0-21.3,31.9-21.2,31.9,0l0.5,74.6
	c0,21.1,36.7,6.2,38.5-16.5v-70C852.5,3683.2,835.1,3666.1,814,3666.1z"/>
<path class="st22" d="M1326.5,3576.1L1326.5,3576.1c-18.9-0.1-34.3-15.4-34.3-34.4v-61.3c0.1-18.9,15.4-34.3,34.3-34.4l0,0
	c18.9,0.1,34.3,15.4,34.3,34.4v61.3C1360.8,3560.7,1345.4,3576,1326.5,3576.1z"/>
<polygon class="st20" points="1292.1,3480.4 1292.1,3561.2 1297.6,3557.3 1297.6,3473.8 "/>
<path class="st21" d="M1319.8,3485.4c0,0,33.5-7.9,49.1,22.9s-30.7,83.3-42.1,85.4s-33.1-0.4-43.2-20.6S1294,3496.4,1319.8,3485.4z"
	/>
<ellipse transform="matrix(0.3491 -0.9371 0.9371 0.3491 -2457.4463 3533.4402)" class="st21" cx="1314.7" cy="3535.6" rx="52.1" ry="34.7"/>
<ellipse transform="matrix(0.3489 -0.9372 0.9372 0.3489 -2450.3423 3559.0669)" class="st21" cx="1336.2" cy="3543" rx="52.1" ry="34.7"/>
<ellipse transform="matrix(0.3489 -0.9372 0.9372 0.3489 -2450.3423 3559.0669)" class="st19" cx="1336.2" cy="3543" rx="43.5" ry="29"/>
<path class="st19" d="M1278.5,3478.4h-0.1v-1.1C1278.4,3477.6,1278.4,3478,1278.5,3478.4z"/>
<path class="st20" d="M1326.5,3446L1326.5,3446c-18.9,0-34.3,15.2-34.3,33.8l5.4,10.6c0-19,28.4-18.9,28.4,0l0.5,66.6
	c0,18.8,32.7,5.6,34.3-14.8v-62.4C1360.8,3461.2,1345.4,3446,1326.5,3446z"/>
<path class="st22" d="M1895.2,3650.2L1895.2,3650.2c-19,0-34.3-15.4-34.3-34.4v-61.3c0.1-18.9,15.4-34.3,34.3-34.4l0,0
	c18.9,0.1,34.3,15.4,34.3,34.4v61.3C1929.5,3634.8,1914.2,3650.1,1895.2,3650.2z"/>
<polygon class="st20" points="1860.9,3554.5 1860.9,3635.3 1866.3,3631.4 1866.3,3547.9 "/>
<path class="st21" d="M1888.5,3559.5c0,0,33.5-7.9,49.1,22.9s-30.7,83.3-42.1,85.4s-33.1-0.4-43.2-20.6S1862.7,3570.5,1888.5,3559.5
	z"/>
<ellipse transform="matrix(0.3491 -0.9371 0.9371 0.3491 -2156.6736 4114.7031)" class="st21" cx="1883.5" cy="3609.7" rx="52.1" ry="34.7"/>
<ellipse transform="matrix(0.3489 -0.9372 0.9372 0.3489 -2149.4978 4140.2524)" class="st21" cx="1904.9" cy="3617.1" rx="52.1" ry="34.7"/>
<ellipse transform="matrix(0.3489 -0.9372 0.9372 0.3489 -2149.5005 4140.2681)" class="st19" cx="1904.9" cy="3617.1" rx="43.5" ry="29"/>
<path class="st19" d="M1847.2,3552.5h-0.1v-1.1C1847.1,3551.7,1847.2,3552.1,1847.2,3552.5z"/>
<path class="st20" d="M1895.2,3520.1L1895.2,3520.1c-18.9,0-34.3,15.2-34.3,33.8l5.4,10.6c0-19,28.4-18.9,28.4,0l-6.3,64.5
	c0,18.8,39.6,7.6,41.2-12.7v-62.4C1929.6,3535.3,1914.1,3520.1,1895.2,3520.1z"/>
<path class="st23" d="M1257.6,3810.4c-9.3,0-18.6-0.9-27.8-2.7L792,3721.1c-16.2-3.2-26.7-18.9-23.5-35.1c2-10,8.9-18.3,18.4-22
	l503-196.8c36.4-14.2,57.3-52.5,49.7-90.8l-25.5-127.7c-1.4-6.8,3.1-13.5,9.9-14.9c1.4-0.3,2.7-0.3,4.1-0.1l573.6,73.3
	c5.2,0.7,9.5,4.5,10.7,9.6l25.6,109.6c11,49.2-14,99.3-60,120l-562.5,251.7C1297.3,3806.1,1277.5,3810.3,1257.6,3810.4z
	 M1342.2,3261l22,110.5c10.1,50.3-17.4,100.6-65.2,119.2l-503,196.8c-2.4,0.9-3.6,3.6-2.6,6c0.6,1.5,1.9,2.6,3.4,2.9l437.8,86.6
	c23.8,4.7,48.4,1.9,70.6-8l562.5-251.7c35-15.7,54-53.9,45.7-91.3l-23.7-101L1342.2,3261z"/>
<path class="st17" d="M1927.6,3324.4c-0.2,0-0.4,0-0.7,0l-625.8-77.3c-2.8-0.3-4.9-2.8-4.7-5.7l40.8-549.7c0.2-2.9,2.7-5.1,5.7-4.9
	l625.8,40.2c2.9,0.2,5.2,2.7,5,5.7c0,0,0,0,0,0l-40.8,586.7C1932.8,3322.2,1930.5,3324.4,1927.6,3324.4L1927.6,3324.4z
	 M1307.5,3237.1l615.2,76l40-575.8l-615.2-39.6L1307.5,3237.1z"/>
<rect x="1639.2" y="2580.7" transform="matrix(8.176460e-02 -0.9967 0.9967 8.176460e-02 -1376.8723 4294.9243)" class="st17" width="6.4" height="628"/>
<rect x="1625.1" y="2778.3" transform="matrix(9.480336e-02 -0.9955 0.9955 9.480336e-02 -1605.0286 4420.563)" class="st17" width="6.4" height="629.1"/>
<path class="st17" d="M1363.8,3251h-0.2c-0.9-0.1-1.6-0.9-1.6-1.8c0,0,0,0,0,0l45.7-553.8c0.1-0.9,1-1.6,1.9-1.4
	c0.8,0.1,1.5,0.9,1.5,1.7l-45.7,553.8C1365.4,3250.3,1364.7,3251,1363.8,3251z"/>
<path class="st17" d="M1444.5,3261h-0.1c-0.9-0.1-1.6-0.9-1.6-1.8l44.9-558.4c0.1-0.9,1-1.6,2-1.4c0.8,0.1,1.5,0.9,1.4,1.7
	l-44.9,558.4C1446.1,3260.3,1445.4,3261,1444.5,3261z"/>
<path class="st17" d="M1526.6,3271.1h-0.1c-0.9-0.1-1.6-0.9-1.6-1.8c0,0,0,0,0,0l44.1-563.2c0.1-0.9,0.8-1.6,1.8-1.6c0,0,0,0,0.1,0
	c0.9,0.1,1.6,0.9,1.6,1.8c0,0,0,0,0,0l-44.1,563.2C1528.2,3270.5,1527.4,3271.2,1526.6,3271.1z"/>
<path class="st17" d="M1610,3281.5h-0.1c-0.9-0.1-1.6-0.9-1.6-1.8c0,0,0,0,0,0l43.3-568c0.1-0.9,0.9-1.6,1.8-1.6s1.6,0.9,1.6,1.8
	c0,0,0,0,0,0l-43.3,568.1C1611.6,3280.8,1610.9,3281.5,1610,3281.5z"/>
<path class="st17" d="M1694.8,3292h-0.1c-0.9-0.1-1.6-0.9-1.6-1.8c0,0,0,0,0,0l42.4-573c0.1-0.9,0.9-1.6,1.8-1.6
	c0.9,0.1,1.6,0.9,1.6,1.8l-42.4,573C1696.5,3291.3,1695.7,3292,1694.8,3292z"/>
<path class="st17" d="M1781.1,3302.7h-0.1c-0.9-0.1-1.6-0.9-1.6-1.8c0,0,0,0,0,0l41.5-578c0.1-0.9,0.9-1.6,1.8-1.6
	c0.9,0.1,1.6,0.9,1.6,1.8l-41.5,578C1782.8,3302,1782,3302.7,1781.1,3302.7z"/>
<path class="st17" d="M1868.9,3313.5h-0.1c-0.9-0.1-1.6-0.9-1.6-1.8c0,0,0,0,0,0l40.5-583.1c0.1-0.9,0.9-1.6,1.8-1.6
	c0.9,0.1,1.6,0.9,1.6,1.8l-40.5,583.1C1870.6,3312.9,1869.8,3313.5,1868.9,3313.5z"/>
<path class="st18" d="M1781.8,3018.6l-295.3-25.6c-10.8-0.9-18.8-10.4-18-21.2l13.5-177.7l333.9,22.6l-12.6,183.6
	c-0.7,10.9-10.2,19.1-21.1,18.4C1782.1,3018.6,1781.9,3018.6,1781.8,3018.6z"/>
<path class="st17" d="M780.6,3430.6c-0.9,0-1.6-0.7-1.7-1.5l-55-501.6c0-0.9,0.7-1.7,1.7-1.8c0.8,0,1.6,0.6,1.7,1.4l55,501.6
	c0.1,0.9-0.6,1.8-1.5,1.9c0,0,0,0,0,0L780.6,3430.6z"/>
<path class="st17" d="M828.1,3413.6c-0.9,0-1.6-0.7-1.7-1.5l-46.6-505.9c-0.1-0.9,0.6-1.8,1.5-1.9c0.9-0.1,1.8,0.6,1.9,1.5l0,0
	l46.6,505.9c0.1,0.9-0.6,1.8-1.5,1.9H828.1z"/>
<path class="st17" d="M875.7,3396.5c-0.9,0-1.6-0.7-1.7-1.6l-38.1-510.2c-0.1-0.9,0.6-1.8,1.6-1.8s1.8,0.6,1.8,1.6l38.1,510.2
	c0.1,0.9-0.6,1.8-1.6,1.8c0,0,0,0,0,0H875.7z"/>
<path class="st17" d="M923.6,3379.3c-0.9,0-1.7-0.7-1.7-1.6l-29.6-514.5c-0.1-0.9,0.7-1.7,1.6-1.8c0.9,0,1.7,0.7,1.8,1.6l29.6,514.5
	c0.1,0.9-0.7,1.7-1.6,1.8C923.7,3379.3,923.7,3379.3,923.6,3379.3L923.6,3379.3z"/>
<path class="st17" d="M971.6,3362.1c-0.9,0-1.7-0.7-1.7-1.6L949,2841.6c0-0.9,0.7-1.7,1.6-1.8s1.7,0.7,1.8,1.6l21,518.9
	c0,0.9-0.7,1.7-1.6,1.8c0,0,0,0,0,0L971.6,3362.1z"/>
<path class="st17" d="M1019.8,3344.7c-0.9,0-1.7-0.7-1.7-1.7l-12.2-523.2c0-0.9,0.8-1.7,1.8-1.6c0.8,0,1.5,0.7,1.6,1.5l12.2,523.3
	C1021.6,3343.9,1020.8,3344.7,1019.8,3344.7L1019.8,3344.7z"/>
<path class="st17" d="M1068.3,3327.4c-0.9,0-1.7-0.7-1.7-1.7c0,0,0,0,0,0l-3.5-527.7c0-0.9,0.7-1.7,1.7-1.7c0,0,0,0,0,0l0,0
	c0.9,0,1.7,0.7,1.7,1.7c0,0,0,0,0,0l3.5,527.7C1070,3326.6,1069.2,3327.4,1068.3,3327.4L1068.3,3327.4z"/>
<path class="st17" d="M1116.9,3309.9L1116.9,3309.9c-0.9,0-1.7-0.8-1.7-1.7l5.4-532.1c0-0.9,0.8-1.7,1.7-1.7l0,0
	c0.9,0,1.7,0.8,1.7,1.7v0l-5.4,532.1C1118.6,3309.1,1117.8,3309.9,1116.9,3309.9z"/>
<path class="st17" d="M1165.7,3292.4L1165.7,3292.4c-0.9,0-1.7-0.8-1.7-1.8l14.3-536.6c0-0.9,0.8-1.7,1.7-1.7c0,0,0,0,0,0
	c0.9,0,1.7,0.8,1.7,1.8l-14.3,536.6C1167.4,3291.6,1166.6,3292.4,1165.7,3292.4z"/>
<path class="st17" d="M1214.7,3274.8L1214.7,3274.8c-1,0-1.8-0.8-1.7-1.7c0,0,0,0,0,0l23.4-541.2c0-0.9,0.8-1.7,1.7-1.6c0,0,0,0,0,0
	c0.9,0,1.7,0.8,1.6,1.8l-23.4,541.2C1216.4,3274,1215.6,3274.8,1214.7,3274.8z"/>
<path class="st17" d="M1264,3257.1L1264,3257.1c-1-0.1-1.8-0.9-1.7-1.8l32.5-545.7c0.1-0.9,0.9-1.7,1.8-1.6c0.9,0.1,1.7,0.9,1.6,1.8
	c0,0,0,0,0,0l-32.5,545.7C1265.6,3256.4,1264.9,3257.1,1264,3257.1z"/>
<path class="st17" d="M732.9,3451.4c-2.7,0-5-2-5.3-4.7l-60.8-498.3c-0.3-2.4,1.1-4.8,3.4-5.6l670.5-255.6c2.8-1,5.8,0.3,6.9,3.1
	c0.3,0.7,0.4,1.5,0.3,2.3l-40.8,549.7c-0.2,2.1-1.5,3.9-3.5,4.6L734.7,3451C734.1,3451.2,733.5,3451.3,732.9,3451.4z M677.9,2951.2
	l59.5,487.6l559.3-200.8l39.9-537.9L677.9,2951.2z"/>
<rect x="669.9" y="2983.3" transform="matrix(0.937 -0.3494 0.3494 0.937 -979.787 541.2534)" class="st17" width="681.1" height="6.4"/>
<rect x="694.1" y="3170.7" transform="matrix(0.938 -0.3466 0.3466 0.938 -1037.1952 548.4094)" class="st17" width="640.9" height="6.4"/>
<path class="st17" d="M1344.1,3530.1c-0.1,0-0.2,0-0.3,0l-561.7-100.2c-0.9-0.2-1.5-1.1-1.4-2s1-1.5,2-1.4l0,0l561.7,100.1
	c0.9,0.2,1.5,1.1,1.4,2C1345.6,3529.5,1344.9,3530.1,1344.1,3530.1L1344.1,3530.1z"/>
<path class="st17" d="M1399.2,3510.3h-0.3l-567.2-98.1c-0.9-0.2-1.6-1-1.4-2c0.2-0.9,1-1.6,2-1.4l0,0l567.2,98.1
	c0.9,0.2,1.5,1.1,1.4,2C1400.7,3509.7,1400,3510.3,1399.2,3510.3L1399.2,3510.3z"/>
<path class="st17" d="M1454.3,3490.6c-0.1,0-0.2,0-0.3,0l-572.7-96.1c-0.9-0.2-1.6-1-1.4-2c0.2-0.9,1-1.6,2-1.4l572.7,96.1
	c0.9,0.1,1.6,1,1.4,1.9C1455.8,3490,1455.1,3490.6,1454.3,3490.6L1454.3,3490.6z"/>
<path class="st17" d="M1509.3,3470.8c-0.1,0-0.2,0-0.3,0l-578.2-94.1c-0.9-0.1-1.6-0.9-1.5-1.9c0.1-0.9,0.9-1.6,1.9-1.5
	c0.1,0,0.1,0,0.2,0l578.2,94.1c0.9,0.2,1.5,1.1,1.4,2C1510.8,3470.3,1510.1,3470.8,1509.3,3470.8L1509.3,3470.8z"/>
<path class="st17" d="M1564.3,3451.1h-0.3L980.4,3359c-0.9-0.2-1.5-1.1-1.3-2.1c0.2-0.8,1-1.4,1.8-1.3l583.7,92.1
	c0.9,0.2,1.5,1.1,1.4,2C1565.8,3450.5,1565.2,3451.1,1564.3,3451.1L1564.3,3451.1z"/>
<path class="st17" d="M1619.4,3431.4c-0.1,0-0.2,0-0.3,0l-589.1-90.1c-0.9-0.1-1.6-1-1.4-1.9s1-1.6,1.9-1.4l589.1,90.1
	c0.9,0.1,1.6,0.9,1.5,1.8C1621.1,3430.8,1620.3,3431.5,1619.4,3431.4L1619.4,3431.4z"/>
<path class="st17" d="M1674.4,3411.6c-0.1,0-0.2,0-0.2,0l-594.7-88c-0.9-0.1-1.6-1-1.4-1.9s1-1.6,1.9-1.4l594.7,88.1
	c0.9,0.1,1.6,0.9,1.5,1.9C1676.1,3411.1,1675.3,3411.7,1674.4,3411.6L1674.4,3411.6z"/>
<path class="st17" d="M1729.4,3391.9h-0.2l-600.1-86c-0.9-0.1-1.6-0.9-1.6-1.8c0.1-0.9,0.9-1.6,1.8-1.6c0.1,0,0.1,0,0.2,0
	l600.1,86.1c0.9,0.1,1.6,0.9,1.5,1.9C1731,3391.3,1730.3,3392,1729.4,3391.9L1729.4,3391.9z"/>
<path class="st17" d="M1784.3,3372.2h-0.2l-605.6-84c-0.9-0.1-1.7-0.9-1.6-1.8c0.1-0.9,0.9-1.7,1.8-1.6c0.1,0,0.2,0,0.2,0l605.6,84
	c0.9,0.1,1.6,0.9,1.5,1.9C1786,3371.6,1785.2,3372.2,1784.3,3372.2L1784.3,3372.2z"/>
<path class="st17" d="M1839.3,3352.5h-0.2l-611.1-82c-0.9-0.1-1.6-1-1.5-1.9c0.1-0.9,1-1.6,1.9-1.5l611.1,82c0.9,0.1,1.6,1,1.4,1.9
	C1840.8,3351.9,1840.1,3352.5,1839.3,3352.5L1839.3,3352.5z"/>
<path class="st17" d="M1894.2,3332.8h-0.2l-616.6-80c-0.9-0.1-1.6-1-1.5-1.9s1-1.6,1.9-1.5l616.6,80c0.9,0.1,1.6,0.9,1.5,1.9
	C1895.9,3332.1,1895.1,3332.8,1894.2,3332.8L1894.2,3332.8z"/>
<rect x="887.8" y="3366.9" transform="matrix(0.9407 -0.3392 0.3392 0.9407 -1072.1998 606.2662)" class="st17" width="620.6" height="6.4"/>
<rect x="1087.2" y="3397" transform="matrix(0.9375 -0.3479 0.3479 0.9375 -1095.4042 700.2257)" class="st17" width="629.7" height="6.4"/>
<path class="st17" d="M1302.9,3550.6c-0.4,0-0.8,0-1.3-0.1l-570-97.1c-4.1-0.7-6.8-4.5-6.1-8.6c0.4-2.7,2.3-4.9,4.8-5.8l568.9-204.2
	c1.1-0.4,2.3-0.5,3.4-0.4l625.8,77.3c4.1,0.5,7,4.2,6.5,8.3c-0.3,2.8-2.2,5.1-4.9,6.1l-624.7,224.1
	C1304.6,3550.5,1303.8,3550.6,1302.9,3550.6z M762.2,3443.4l540.1,92l593.4-212.8l-593-73.2L762.2,3443.4z"/>
<polygon class="st24" points="1166.8,3378.5 874.2,3316.8 874.2,2979.9 1166.8,3032.9 "/>
<polygon class="st25" points="874.2,2979.9 995.6,2940.6 1085.6,2915.8 1364.3,2963.3 1166.8,3032.9 "/>
<polygon class="st24" points="1166.8,3378.5 1360.1,3298 1364.3,2963.3 1166.8,3032.9 "/>
<path class="st26" d="M1283.6,2993.7L1283.6,2993.7l-288.1-52.6c-0.3-0.1-0.5-0.3-0.4-0.6c0.1-0.3,0.3-0.5,0.6-0.4c0,0,0,0,0,0
	l288,52.6c0.3,0.1,0.5,0.3,0.4,0.6C1284,2993.5,1283.8,2993.7,1283.6,2993.7z"/>
<path class="st26" d="M1168.4,3034.2c-0.3,0-0.5-0.3-0.5-0.6c0-0.2,0.1-0.4,0.3-0.5l195-68.6c0.3-0.1,0.6,0.1,0.7,0.3c0,0,0,0,0,0
	c0.1,0.3,0,0.6-0.3,0.7l-195,68.6L1168.4,3034.2z"/>
<polygon class="st1" points="980.8,2945.6 1265.8,2999.1 1265.8,3074.7 1295.2,3060.9 1297.3,2988.4 1015,2935.5 "/>
<polygon class="st24" points="1582,3387.7 1289.3,3326 1289.3,2989.1 1582,3042.1 "/>
<polygon class="st25" points="1289.3,2989.1 1410.7,2949.8 1500.8,2925 1779.4,2972.5 1582,3042.1 "/>
<polygon class="st27" points="1582,3387.7 1775.2,3307.2 1779.4,2972.5 1582,3042.1 "/>
<path class="st26" d="M1698.7,3002.9L1698.7,3002.9l-288.1-52.6c-0.3-0.1-0.5-0.4-0.4-0.7c0.1-0.3,0.3-0.4,0.6-0.4l288,52.6
	c0.3,0.1,0.5,0.3,0.4,0.6C1699.2,3002.7,1699,3002.9,1698.7,3002.9L1698.7,3002.9z"/>
<path class="st26" d="M1583.5,3043.4c-0.3,0-0.6-0.2-0.6-0.5c0-0.2,0.1-0.4,0.4-0.5l195-68.6c0.3,0,0.6,0.2,0.6,0.5
	c0,0.2-0.1,0.4-0.2,0.5l-195,68.6C1583.7,3043.4,1583.6,3043.4,1583.5,3043.4z"/>
<polygon class="st1" points="1395.9,2954.8 1681,3008.3 1681,3083.9 1710.4,3070.1 1712.5,2997.6 1430.2,2944.7 "/>
<polygon class="st28" points="1513.6,3029.7 1680.2,2987.4 1345.3,2976.1 1345.3,3020.9 1289.3,3008.6 1289.3,3326 1486.6,3361.9 
	"/>
<polygon class="st27" points="1289.2,3477 996.5,3415.3 996.5,3078.4 1289.2,3131.4 "/>
<polygon class="st25" points="996.5,3078.4 1117.9,3039.1 1207.9,3014.3 1486.6,3061.9 1289.2,3131.4 "/>
<polygon class="st24" points="1289.2,3477 1482.4,3396.5 1486.6,3061.9 1289.2,3131.4 "/>
<path class="st26" d="M1405.9,3092.2L1405.9,3092.2l-288.1-52.6c-0.3-0.1-0.5-0.3-0.4-0.6c0.1-0.3,0.3-0.5,0.6-0.4l0,0l288,52.6
	c0.3,0.1,0.5,0.3,0.4,0.6C1406.3,3092,1406.1,3092.2,1405.9,3092.2L1405.9,3092.2z"/>
<path class="st26" d="M1290.7,3132.7c-0.2,0-0.4-0.2-0.5-0.4c-0.1-0.3,0-0.6,0.3-0.7l195-68.6c0.3,0,0.6,0.2,0.6,0.5
	c0,0.2-0.1,0.4-0.2,0.5l-195,68.6L1290.7,3132.7z"/>
<polygon class="st1" points="1103.1,3044.1 1388.1,3097.6 1388.1,3173.3 1417.6,3159.4 1419.6,3086.9 1137.3,3034.1 "/>
<polygon class="st28" points="996.5,3140.6 1186,3140.6 1211.5,3117.4 1379.3,3045.2 1207.9,3014.3 996.5,3078.4 "/>
<polygon class="st27" points="1440.8,3037.8 1680.2,2987.4 1680.2,2711.8 1440.8,2755.1 "/>
<polygon class="st25" points="1680.2,2711.8 1580.9,2679.5 1507.2,2659.3 1279.2,2698.2 1440.8,2755.1 "/>
<polygon class="st29" points="1440.8,3037.8 1282.7,2971.9 1279.2,2698.2 1440.8,2755.1 "/>
<polygon class="st28" points="1480.1,2748 1440.8,2778.2 1382.8,2818 1379.3,3012.2 1349.7,2999.4 1349.7,2722.2 1440.8,2755.1 "/>
<path class="st26" d="M1345.3,2723c-0.2,0-0.4-0.2-0.4-0.5c0-0.2,0.2-0.4,0.4-0.4l235.6-43c0.2,0,0.5,0.1,0.5,0.4
	c0,0.2-0.1,0.5-0.4,0.5L1345.3,2723L1345.3,2723z"/>
<path class="st26" d="M1439.5,2756.2h-0.1l-159.5-56.2c-0.2-0.1-0.4-0.3-0.3-0.6c0.1-0.2,0.3-0.4,0.6-0.3l159.5,56.1
	c0.2,0.1,0.3,0.3,0.3,0.6C1439.8,2756,1439.7,2756.1,1439.5,2756.2L1439.5,2756.2z"/>
<polygon class="st1" points="1593,2683.6 1359.8,2727.4 1359.8,2789.3 1335.7,2778 1334,2718.7 1564.9,2675.4 "/>
<polygon class="st27" points="1196.4,3123.9 943,3070.4 943,2778.7 1196.4,2824.6 "/>
<polygon class="st25" points="943,2778.7 1048.1,2744.6 1126.1,2723.2 1367.4,2764.4 1196.4,2824.6 "/>
<polygon class="st24" points="1196.4,3123.9 1363.8,3054.1 1367.4,2764.4 1196.4,2824.6 "/>
<path class="st26" d="M1297.5,2790.7L1297.5,2790.7l-249.5-45.5c-0.3-0.1-0.4-0.3-0.3-0.6c0.1-0.2,0.3-0.4,0.5-0.3l249.4,45.6
	c0.3,0,0.4,0.3,0.4,0.5c0,0,0,0,0,0C1297.9,2790.5,1297.7,2790.6,1297.5,2790.7z"/>
<path class="st26" d="M1197.8,2825.7c-0.3,0-0.5-0.2-0.5-0.4c0-0.2,0.1-0.4,0.3-0.5l168.8-59.4c0.2-0.1,0.5,0,0.6,0.3
	c0.1,0.2,0,0.5-0.3,0.6l-168.8,59.4L1197.8,2825.7z"/>
<polygon class="st1" points="1035.3,2749 1282.1,2795.3 1282.1,2860.8 1307.6,2848.8 1309.4,2786.1 1065,2740.3 "/>
<polygon class="st28" points="1146.2,2730.4 1131.8,2734.4 1264.4,2801.1 1366.6,2905.6 1367.4,2764.4 "/>
<polygon class="st27" points="1264.4,2801.1 1479.7,2755.8 1479.7,2508 1264.4,2547 "/>
<polygon class="st25" points="1479.7,2508 1390.4,2479.1 1324.2,2460.9 1119.2,2495.8 1264.4,2547 "/>
<polygon class="st24" points="1264.4,2801.1 1122.3,2741.9 1119.2,2495.8 1264.4,2547 "/>
<path class="st26" d="M1178.6,2518.1c-0.2,0-0.4-0.1-0.4-0.4c0-0.2,0.1-0.4,0.4-0.4l211.8-38.7c0.2,0,0.4,0.1,0.5,0.3c0,0,0,0,0,0
	c0,0.2-0.1,0.4-0.3,0.5c0,0,0,0,0,0L1178.6,2518.1L1178.6,2518.1z"/>
<path class="st26" d="M1263.3,2547.9h-0.1l-143.4-50.4c-0.2-0.1-0.3-0.3-0.2-0.5c0.1-0.2,0.3-0.3,0.5-0.2c0,0,0,0,0,0l143.4,50.4
	c0.2,0.1,0.3,0.3,0.3,0.5c0,0,0,0,0,0C1263.6,2547.8,1263.5,2547.9,1263.3,2547.9z"/>
<polygon class="st1" points="1401.3,2482.7 1191.7,2522.1 1191.7,2577.7 1170,2567.6 1168.5,2514.2 1376.1,2475.4 "/>
<path class="st17" d="M788.9,3457.3c-0.9,0-1.6-0.7-1.7-1.5l-59.8-501c-0.1-0.9,0.6-1.8,1.5-1.9c0.9-0.1,1.8,0.6,1.9,1.5l0,0
	l59.8,501c0.1,0.9-0.6,1.8-1.5,1.9L788.9,3457.3z"/>
<path class="st17" d="M862.2,3469.8c-0.9,0-1.6-0.7-1.7-1.5l-56.7-504.3c-0.2-0.9,0.4-1.8,1.4-2c0.9-0.2,1.8,0.4,2,1.4
	c0,0.1,0,0.2,0,0.2l56.7,504.3c0.1,0.9-0.6,1.8-1.5,1.9L862.2,3469.8z"/>
<path class="st17" d="M936.8,3482.5c-0.9,0-1.6-0.7-1.7-1.5l-53.5-507.7c-0.1-0.9,0.6-1.8,1.5-1.9c0.9-0.1,1.8,0.6,1.9,1.5l0,0
	l53.5,507.7c0.1,0.9-0.6,1.8-1.5,1.9c0,0,0,0,0,0L936.8,3482.5z"/>
<path class="st17" d="M1012.4,3495.4c-0.9,0-1.6-0.7-1.7-1.5l-50.2-511.1c-0.1-0.9,0.6-1.8,1.5-1.9c0.9-0.1,1.8,0.6,1.9,1.5
	l50.2,511.1c0.1,0.9-0.6,1.8-1.5,1.9c0,0,0,0,0,0L1012.4,3495.4z"/>
<path class="st17" d="M1089.1,3508.4c-0.9,0-1.6-0.7-1.7-1.6l-46.8-514.5c-0.1-0.9,0.6-1.8,1.5-1.9c0.9-0.1,1.8,0.6,1.9,1.5
	l46.8,514.5c0.1,0.9-0.6,1.8-1.5,1.8c0,0,0,0,0,0L1089.1,3508.4z"/>
<path class="st17" d="M1167.1,3521.7c-0.9,0-1.6-0.7-1.7-1.6l-43.3-518c-0.1-0.9,0.6-1.8,1.6-1.8c0.9-0.1,1.8,0.6,1.8,1.6l0,0
	l43.3,518c0.1,0.9-0.6,1.8-1.5,1.8c0,0,0,0,0,0L1167.1,3521.7z"/>
<path class="st17" d="M1246.2,3535.2c-0.9,0-1.6-0.7-1.7-1.6l-39.7-521.5c-0.1-0.9,0.6-1.8,1.6-1.8c0.9-0.1,1.8,0.6,1.8,1.6l0,0
	l39.7,521.5c0.1,0.9-0.6,1.8-1.6,1.8c0,0,0,0,0,0H1246.2z"/>
<path class="st17" d="M1302.9,3548.5c-0.3,0-0.6,0-0.9-0.1l-570-97.1c-2.3-0.4-4.1-2.3-4.4-4.6l-60.8-498.3
	c-0.4-2.9,1.7-5.6,4.7-5.9c0.4-0.1,0.8-0.1,1.3,0l596.4,71.8c2.5,0.3,4.5,2.4,4.7,4.9l34.5,523.7c0.2,2.9-2,5.5-5,5.7
	C1303.2,3548.5,1303,3548.5,1302.9,3548.5L1302.9,3548.5z M737.7,3441.5l559.5,95.3l-33.7-512.6l-585.3-70.4L737.7,3441.5z"/>
<rect x="985.5" y="2853.6" transform="matrix(0.1502 -0.9887 0.9887 0.1502 -2274.4192 3654.6189)" class="st17" width="6.4" height="593.6"/>
<rect x="999.6" y="3037" transform="matrix(0.1502 -0.9887 0.9887 0.1502 -2439.2419 3820.5427)" class="st17" width="6.4" height="584.4"/>
<path class="st17" d="M1302.9,3548.5c-2.8,0-5.1-2.2-5.3-5l-34.5-523.7c-0.1-2.3,1.2-4.4,3.3-5.3l699.9-287.1c2.7-1.1,5.8,0.2,7,2.9
	c0.3,0.8,0.4,1.6,0.4,2.4l-40.8,586.7c-0.1,2.1-1.5,3.9-3.5,4.6l-624.7,224.1C1304.1,3548.4,1303.5,3548.5,1302.9,3548.5z
	 M1274,3022.9l33.8,512.8l614.8-220.5l39.9-574.7L1274,3022.9z"/>
<rect x="1253.6" y="3055.7" transform="matrix(0.9276 -0.3735 0.3735 0.9276 -1025.3618 825.4254)" class="st17" width="727.8" height="6.4"/>
<rect x="1268.2" y="3244.6" transform="matrix(0.9331 -0.3597 0.3597 0.9331 -1059.9613 798.691)" class="st17" width="696.2" height="6.4"/>
<path class="st17" d="M1356.3,3525.7c-0.9,0-1.6-0.7-1.7-1.6l-35.6-526c-0.1-0.9,0.6-1.8,1.6-1.8c0.9-0.1,1.8,0.6,1.8,1.6l35.6,526
	c0.1,0.9-0.6,1.7-1.6,1.8c0,0,0,0,0,0L1356.3,3525.7z"/>
<path class="st17" d="M1406.2,3507.8c-0.9,0-1.6-0.7-1.7-1.6l-29.1-531.2c0-0.9,0.8-1.7,1.7-1.7c0.9,0,1.6,0.7,1.7,1.5l29.1,531.2
	c0.1,0.9-0.7,1.7-1.6,1.8C1406.3,3507.8,1406.3,3507.8,1406.2,3507.8L1406.2,3507.8z"/>
<path class="st17" d="M1456.5,3489.8c-0.9,0-1.7-0.7-1.7-1.6l-22.6-536.5c0-0.9,0.7-1.7,1.6-1.8c0.9,0,1.7,0.7,1.8,1.6l0,0
	l22.6,536.5C1458.3,3488.9,1457.5,3489.7,1456.5,3489.8L1456.5,3489.8z"/>
<path class="st17" d="M1507.4,3471.5c-0.9,0-1.7-0.7-1.7-1.7l-15.9-541.9c0-0.9,0.7-1.7,1.6-1.8c0.9,0,1.7,0.7,1.8,1.6l15.9,541.9
	C1509.1,3470.7,1508.4,3471.5,1507.4,3471.5C1507.4,3471.5,1507.4,3471.5,1507.4,3471.5L1507.4,3471.5z"/>
<path class="st17" d="M1558.7,3453.1c-0.9,0-1.7-0.7-1.7-1.7l-9-547.3c0.1-0.9,0.9-1.7,1.8-1.6c0.8,0,1.5,0.7,1.6,1.6l9,547.3
	C1560.4,3452.3,1559.6,3453.1,1558.7,3453.1C1558.7,3453.1,1558.7,3453.1,1558.7,3453.1L1558.7,3453.1z"/>
<path class="st17" d="M1610.5,3434.5c-0.9,0-1.7-0.8-1.7-1.7l-2-552.8c0-0.9,0.8-1.7,1.7-1.7l0,0c0.9,0,1.7,0.8,1.7,1.7l2,552.8
	C1612.2,3433.8,1611.4,3434.5,1610.5,3434.5L1610.5,3434.5z"/>
<path class="st17" d="M1662.8,3415.8L1662.8,3415.8c-0.9,0-1.7-0.8-1.7-1.7l5.1-558.5c0-0.9,0.8-1.7,1.7-1.7l0,0
	c0.9,0,1.7,0.8,1.7,1.7v0l-5.1,558.5C1664.5,3415,1663.7,3415.8,1662.8,3415.8z"/>
<path class="st17" d="M1715.7,3396.8L1715.7,3396.8c-0.9,0-1.7-0.8-1.7-1.7l12.4-564.2c0-0.9,0.8-1.7,1.7-1.7c0,0,0,0,0.1,0
	c0.9,0,1.7,0.8,1.7,1.7l-12.4,564.2C1717.4,3396.1,1716.6,3396.8,1715.7,3396.8z"/>
<path class="st17" d="M1769,3377.7L1769,3377.7c-1,0-1.7-0.8-1.7-1.8l19.8-570c0-0.9,0.8-1.7,1.8-1.6c0.9,0,1.7,0.8,1.6,1.8
	l-19.8,570C1770.7,3377,1769.9,3377.7,1769,3377.7z"/>
<path class="st17" d="M1822.9,3358.4L1822.9,3358.4c-1,0-1.7-0.8-1.7-1.8l27.4-575.9c0-0.9,0.8-1.7,1.8-1.6c0.9,0,1.7,0.8,1.6,1.8
	l-27.4,575.9C1824.5,3357.6,1823.8,3358.4,1822.9,3358.4z"/>
<path class="st17" d="M1877.3,3338.8h-0.1c-0.9-0.1-1.7-0.9-1.6-1.8l35.2-581.8c0.1-0.9,0.9-1.7,1.8-1.6c0.9,0.1,1.6,0.9,1.6,1.8
	c0,0,0,0,0,0l-35.1,581.8C1878.9,3338.1,1878.2,3338.8,1877.3,3338.8z"/>
<ellipse transform="matrix(4.780376e-02 -0.9989 0.9989 4.780376e-02 1933.4559 4683.3608)" class="st30" cx="3423.2" cy="1327.6" rx="61.1" ry="17"/>
<ellipse transform="matrix(4.780376e-02 -0.9989 0.9989 4.780376e-02 1745.1882 4846.3818)" class="st30" cx="3414.5" cy="1507.8" rx="61.1" ry="17"/>
<g>
	
		<linearGradient id="SVGID_00000026133120028399633890000012122341379540077477_" gradientUnits="userSpaceOnUse" x1="2613.2698" y1="888.3006" x2="3011.2197" y2="1064.4308" gradientTransform="matrix(1 0 0 -1 0 5000)">
		<stop  offset="0" style="stop-color:#969696"/>
		<stop  offset="1" style="stop-color:#FFFFFF"/>
	</linearGradient>
	
		<ellipse style="opacity:0.5;fill:url(#SVGID_00000026133120028399633890000012122341379540077477_);enable-background:new    ;" cx="2720.5" cy="4064.2" rx="164.1" ry="77.3"/>
</g>
<g>
	
		<linearGradient id="SVGID_00000167398692870068019050000001249485090065231281_" gradientUnits="userSpaceOnUse" x1="3110.5725" y1="810.3648" x2="3556.7925" y2="1007.8548" gradientTransform="matrix(1 0 0 -1 0 5000)">
		<stop  offset="0" style="stop-color:#969696"/>
		<stop  offset="1" style="stop-color:#FFFFFF"/>
	</linearGradient>
	
		<ellipse style="opacity:0.5;fill:url(#SVGID_00000167398692870068019050000001249485090065231281_);enable-background:new    ;" cx="3230.8" cy="4136.4" rx="183.4" ry="93"/>
</g>
<g>
	
		<linearGradient id="SVGID_00000016781848327980212420000014422270624734612893_" gradientUnits="userSpaceOnUse" x1="2676.3521" y1="1156.9657" x2="3016.332" y2="1307.4357" gradientTransform="matrix(1 0 0 -1 0 5000)">
		<stop  offset="0" style="stop-color:#969696"/>
		<stop  offset="1" style="stop-color:#FFFFFF"/>
	</linearGradient>
	
		<ellipse style="opacity:0.5;fill:url(#SVGID_00000016781848327980212420000014422270624734612893_);enable-background:new    ;" cx="2768" cy="3802.5" rx="139.7" ry="70.9"/>
</g>
<linearGradient id="SVGID_00000109011740725722740650000006045728333035953027_" gradientUnits="userSpaceOnUse" x1="2807.7705" y1="2089.0693" x2="4761.7007" y2="4042.9993" gradientTransform="matrix(1 0 3.000000e-02 -1 -6.39 4992.8901)">
	<stop  offset="0" style="stop-color:#38CAD1"/>
	<stop  offset="0.28" style="stop-color:#3DB6D7"/>
	<stop  offset="0.84" style="stop-color:#4B84E8"/>
	<stop  offset="1" style="stop-color:#4F74ED"/>
</linearGradient>
<path style="fill:url(#SVGID_00000109011740725722740650000006045728333035953027_);" d="M4383.7,2087.7l-766.4-56.9
	c-24.1-1.8-42.8-25-41.9-52l14.1-441.7c0.9-26.9,21-48.7,45.2-48.7l768.2,0.2c29.7,0,53.1,24.4,52.1,54.5l-15.8,494
	C4438.2,2067.3,4413.3,2089.9,4383.7,2087.7z"/>
<linearGradient id="SVGID_00000103967824095871293230000001177990701504173483_" gradientUnits="userSpaceOnUse" x1="3630.1628" y1="3746.5005" x2="3801.823" y2="2881.7205" gradientTransform="matrix(1 0 0 -1 0 5000)">
	<stop  offset="0.24" style="stop-color:#EBBC60"/>
	<stop  offset="0.55" style="stop-color:#FFFFFF"/>
	<stop  offset="0.99" style="stop-color:#FFBC38"/>
</linearGradient>
<path style="fill:url(#SVGID_00000103967824095871293230000001177990701504173483_);" d="M3719.8,1627.2l59.4,1.1l0.9-26.3
	c0.3-8.8-6-15.9-13.9-16l-82.5-1.1l-2,62.6c-0.1,3.8-2,6.8-5.4,6.7l0,0c-3.4-0.1-4.6-3.1-4.5-6.9l2-62.6l-14.1-0.2
	c-7.7-0.1-14.2,6.8-14.5,15.4l-2.4,75.5l76.5,2c2.5,0.1,4.6,2.1,4.7,4.7c0.2,3-2.1,5.6-4.8,5.5l-76.8-2.1l-1,31.1
	c-0.3,8.6,5.7,15.8,13.5,16l106.4,3.6c8,0.3,14.6-6.6,14.9-15.4l2.6-82.1l-59.6-1.2c-2.7-0.2-4.8-2.6-4.5-5.3c0-0.2,0-0.3,0.1-0.5
	C3715,1629.2,3717.2,1627.2,3719.8,1627.2z"/>
<polygon class="st36" points="4367.7,2019.1 4178.8,2006.7 4181.9,1909.8 4370.8,1919.9 "/>
<polygon class="st36" points="3791.5,1793.4 3639.2,1787.2 3637.8,1829.2 3790.2,1836.3 "/>
<polygon class="st36" points="3813.5,1794.3 3812.1,1837.3 3974.9,1844.9 3976.3,1800.9 "/>
<polygon class="st36" points="4189.5,1809.6 4188,1854.9 4371.6,1863.4 4373,1817.1 "/>
<polygon class="st36" points="4163.9,1808.6 4002.4,1802 4001,1846.2 4162.5,1853.7 "/>
<polygon class="st37" points="4126.2,1964.9 3635.4,1934.9 3637.1,1880.6 4128.1,1906.9 "/>
<polygon class="st36" points="4149.8,1543.2 4382.8,1544.8 4380.6,1614.5 4147.7,1610.8 "/>
<path class="st38" d="M1958.6,2223.8l-592.7-44c-18.6-1.4-33.1-19.4-32.4-40.2l10.9-341.6c0.7-20.8,16.2-37.7,34.9-37.7l594.1,0.1
	c22.9,0,41.1,18.9,40.3,42.2l-12.2,382.1C2000.7,2208,1981.5,2225.5,1958.6,2223.8z"/>
<linearGradient id="SVGID_00000183244208558877572380000003938003787707735976_" gradientUnits="userSpaceOnUse" x1="1248.9913" y1="3407.3572" x2="1483.4813" y2="3035.5671" gradientTransform="matrix(1 0 0 -1 0 5000)">
	<stop  offset="0.24" style="stop-color:#EBBC60"/>
	<stop  offset="0.55" style="stop-color:#FFFFFF"/>
	<stop  offset="0.99" style="stop-color:#FFBC38"/>
</linearGradient>
<path style="fill:url(#SVGID_00000183244208558877572380000003938003787707735976_);" d="M1445.1,1867.7l45.9,0.9l0.6-20.3
	c0.2-6.8-4.6-12.3-10.8-12.4l-63.8-0.8l-1.6,48.4c-0.1,2.9-1.6,5.2-4.2,5.2l0,0c-2.6-0.1-3.6-2.4-3.5-5.3l1.5-48.4l-10.9-0.2
	c-6-0.1-11,5.2-11.2,11.9l-1.9,58.4l59.2,1.5c2.2,0.2,3.8,2,3.6,4.2c-0.1,2-1.7,3.5-3.6,3.6l-59.4-1.6l-0.8,24.1
	c-0.2,6.7,4.4,12.2,10.4,12.4l82.2,2.7c6.2,0.2,11.3-5.1,11.6-11.9l2-63.5l-46.1-0.9c-2.1-0.2-3.7-2-3.5-4.1c0-0.1,0-0.3,0-0.4
	C1441.4,1869.2,1443.1,1867.7,1445.1,1867.7z"/>
<polygon class="st11" points="1946.2,2170.8 1800.1,2161.1 1802.5,2086.2 1948.6,2094.1 "/>
<polygon class="st11" points="1500.6,1996.2 1382.8,1991.4 1381.7,2023.9 1499.6,2029.4 "/>
<polygon class="st11" points="1517.6,1996.9 1516.5,2030.2 1642.4,2036.1 1643.5,2002 "/>
<polygon class="st11" points="1808.3,2008.8 1807.2,2043.8 1949.2,2050.4 1950.3,2014.6 "/>
<polygon class="st11" points="1788.6,2008 1663.7,2002.8 1662.6,2037 1787.5,2042.8 "/>
<polygon class="st40" points="1759.5,2128.8 1379.8,2105.7 1381.2,2063.6 1760.9,2084 "/>
<polygon class="st11" points="1777.7,1802.7 1957.9,1804 1956.2,1857.9 1776.1,1855 "/>
<path class="st41" d="M2863.2,4035.4c-21.7-28.4-79.4-48.7-147.2-48.7s-125.5,20.3-147.2,48.7h-9.2v25c0,40.7,70.1,73.7,156.5,73.7
	s156.5-33,156.5-73.7v-25L2863.2,4035.4z"/>
<ellipse class="st42" cx="2716" cy="4035.4" rx="156.5" ry="73.7"/>
<ellipse class="st43" cx="2716" cy="4035.4" rx="146.6" ry="69.1"/>
<path class="st42" d="M2716,4098.1c-35.9,0-69.6-6.4-95-18.2c-25.7-11.8-39.8-27.7-39.8-44.6s14.1-32.8,39.8-44.6
	c25.4-11.7,59.2-18.2,95-18.2s69.6,6.4,95.1,18.2c25.7,11.8,39.8,27.7,39.8,44.6s-14.1,32.7-39.8,44.6
	C2785.6,4091.7,2751.9,4098.1,2716,4098.1z M2716,3974.8c-73.2,0-132.7,27.2-132.7,60.6s59.5,60.6,132.7,60.6s132.7-27.2,132.7-60.6
	S2789.2,3974.8,2716,3974.8z"/>
<ellipse class="st43" cx="2716" cy="4035.4" rx="130.6" ry="60.2"/>
<path class="st44" d="M2681.9,4065.1c0.8-4.4-7.1-9-7.1-9s-9.2,2.7-10,7.1c-0.7,4,5.7,8.1,6.9,8.9c-8.2-1.9-16.2-4.5-23.9-8
	c1.5-0.3,9.4-1.9,11.9-5.6c2.8-4.1-2-9.2-2-9.2s-9.4,1.6-12.1,5.7c-2.4,3.5,0.8,7.8,1.8,8.9c-5.4-2.5-10.4-5.7-14.9-9.6l0.6-0.1
	c-0.2-0.2-0.3-0.4-0.5-0.6c2.1-0.3,8.9-1.5,11.9-4.6c3.5-3.7,0.3-8.7,0.3-8.7s-8.9,1-12.5,4.7c-2.5,2.6-1.6,5.9-0.9,7.6
	c-0.6-0.4-1.2-0.8-1.8-1.2c-2.9-3.1-4.9-7-6-11.1c2.5,0,8.6-0.3,13.1-2.4c5.9-2.8,7.1-7.6,7.1-7.6s-8.4-0.4-14.3,2.4
	c-2.6,1.2-4.8,3.2-6.2,5.7c0-0.1-0.1-0.3-0.1-0.4c-0.5-4.1,0.2-8.2,2.1-11.9c4.7,0.4,9.5-0.1,14-1.4c3.8-1.2,7.2-3.4,9.8-6.4
	c-4.8-0.4-9.6,0.1-14.2,1.4c-3.4,1.1-6.6,3-9.1,5.6c2.6-4.7,6.9-9.1,12.8-13.1c4.5,0.5,9.1,0.4,13.6-0.3c4.3-0.7,8.5-2.3,12.2-4.6
	c-4.8-0.7-9.8-0.6-14.6,0.2c-2.2,0.4-4.3,1-6.3,1.8c5.7-3.1,11.7-5.7,17.9-7.6c4.7,0.3,9.4,0,14-1.1c4-0.9,7.6-2.7,10.8-5.3
	c-4.8-0.4-9.7-0.1-14.4,1c-3.5,0.9-6.9,2.4-9.8,4.5c-6.2,1.9-12.2,4.4-18,7.4c0.5-0.5,0.9-1,1.2-1.6c1.9-3.6-1.2-7.3-1.2-7.3
	s-6.2,2.1-8.1,5.6s1.2,7.3,1.2,7.3l0.4-0.2c-4.3,2.8-8.1,6.3-11.1,10.4c0-1.1-0.3-2.1-1-2.9c-2.7-3.5-10.8-6-10.8-6
	s-3.6,3.2-0.9,6.7c2.4,3.1,9.1,5.5,10.5,5.9c-1.9,3.7-2.6,7.9-2.1,12c0.1,0.8,0.2,1.5,0.4,2.3l0,0c0.9,3.7,2.7,7.2,5.2,10.1
	c-1.8-0.7-3.6-1.2-5.5-1.6c-8.2-1.4-18.8,0.4-18.8,0.4s2.8,4.1,11.1,5.4c6.3,1.1,13.9,0.2,17.2-0.2c3.7,3.2,7.7,6,12.1,8.2
	c12.4,6.5,29.7,11.3,49.8,13.9l0.3-0.5c-7.2-0.9-14.4-2.2-21.5-3.8C2673.2,4071.8,2681.2,4069.2,2681.9,4065.1z"/>
<path class="st44" d="M2654.4,4069.2c-9.7-0.3-19.4,3.5-19.4,3.5c4.7,2.9,10.2,4.4,15.7,4.4c9.7,0.3,19.4-3.5,19.4-3.5
	C2665.4,4070.8,2660,4069.2,2654.4,4069.2z"/>
<path class="st44" d="M2631.7,4060c-9.3-0.5-19.3,2.6-19.3,2.6s5,4,14.3,4.5s19.3-2.6,19.3-2.6S2641,4060.5,2631.7,4060z"/>
<path class="st44" d="M2622.3,4040.7c0,0-0.7-3.9-7.6-6.1s-17.5-1.9-17.5-1.9s0.7,3.9,7.6,6.1S2622.3,4040.7,2622.3,4040.7z"/>
<path class="st44" d="M2777.5,4068.5c-5.5,0-11,1.6-15.7,4.4c0,0,9.7,3.8,19.4,3.5c5.5-0.1,11-1.6,15.7-4.4
	C2796.9,4072,2787.2,4068.2,2777.5,4068.5z"/>
<path class="st44" d="M2800.2,4059.3c-9.3,0.5-14.3,4.5-14.3,4.5s10,3.1,19.3,2.6s14.3-4.5,14.3-4.5S2809.5,4058.8,2800.2,4059.3z"
	/>
<path class="st44" d="M2810,4048c-1.9,0.3-3.7,0.8-5.5,1.6c2.5-2.9,4.2-6.4,5.1-10.1l0,0c0.2-0.8,0.3-1.5,0.4-2.3
	c0.5-4.1-0.2-8.3-2.1-12c1.5-0.5,8.1-2.8,10.5-6c2.8-3.5-0.9-6.7-0.9-6.7s-8.1,2.5-10.9,6c-0.7,0.8-1,1.8-1,2.9
	c-3.1-4.1-6.8-7.6-11.1-10.4l0.4,0.2c0,0,3.1-3.7,1.2-7.3s-8.1-5.6-8.1-5.6s-3.1,3.7-1.2,7.2c0.3,0.6,0.8,1.2,1.2,1.6
	c-5.8-3-11.8-5.5-18-7.4c-2.9-2.1-6.3-3.6-9.8-4.5c-4.7-1.1-9.6-1.4-14.4-1c3.2,2.6,6.8,4.4,10.8,5.3c4.6,1,9.3,1.4,14,1.1
	c6.2,2,12.2,4.5,17.9,7.6c-2.1-0.8-4.2-1.4-6.3-1.8c-4.8-0.8-9.7-0.8-14.6-0.2c3.7,2.3,7.9,3.9,12.2,4.6c4.5,0.7,9.1,0.8,13.6,0.3
	c5.9,4,10.2,8.4,12.8,13.1c-2.5-2.6-5.6-4.5-9.1-5.6c-4.6-1.3-9.4-1.8-14.2-1.4c2.6,3,6,5.3,9.8,6.4c4.5,1.3,9.3,1.8,14,1.4
	c1.9,3.7,2.6,7.8,2.1,11.9c0,0.1,0,0.3-0.1,0.4c-1.4-2.5-3.6-4.5-6.2-5.7c-5.9-2.8-14.3-2.4-14.3-2.4s1.2,4.9,7.1,7.6
	c4.6,2.1,10.6,2.4,13.1,2.4c-1.1,4.1-3.1,7.9-6,11.1c-0.6,0.4-1.2,0.8-1.8,1.2c0.7-1.7,1.6-4.9-0.9-7.6c-3.5-3.7-12.5-4.7-12.5-4.7
	s-3.2,5,0.3,8.7c3,3.1,9.8,4.3,11.9,4.6c-0.2,0.2-0.4,0.4-0.5,0.6l0.6,0.1c-4.5,3.9-9.5,7.1-14.9,9.6c1-1.1,4.2-5.4,1.8-8.9
	c-2.8-4.1-12.1-5.7-12.1-5.7s-4.8,5.1-2,9.2c2.5,3.7,10.4,5.3,11.9,5.6c-7.7,3.5-15.7,6.1-23.9,8c1.2-0.8,7.6-4.8,6.9-8.9
	c-0.8-4.4-10-7.1-10-7.1s-7.9,4.5-7.1,9c0.7,4.1,8.7,6.7,9.8,7.1c-7.1,1.6-14.3,2.9-21.5,3.8l0.3,0.5c20.1-2.5,37.3-7.3,49.8-13.9
	c4.4-2.2,8.4-5,12.1-8.2c3.3,0.4,10.9,1.2,17.2,0.2c8.3-1.4,11.1-5.4,11.1-5.4S2818.2,4046.6,2810,4048z"/>
<path class="st44" d="M2817.3,4033.9c-7,2.2-7.6,6.1-7.6,6.1s10.6,0.3,17.5-1.9s7.6-6.1,7.6-6.1S2824.2,4031.7,2817.3,4033.9z"/>
<ellipse class="st44" cx="2716" cy="4035.4" rx="41.3" ry="19"/>
<path class="st41" d="M3384.3,4115.3c-23.8-31.2-87.1-53.4-161.5-53.4s-137.7,22.3-161.5,53.4h-10.1v27.4
	c0,44.6,76.8,80.9,171.6,80.9s171.6-36.2,171.6-80.9v-27.4H3384.3z"/>
<ellipse class="st42" cx="3222.9" cy="4115.3" rx="171.6" ry="80.9"/>
<ellipse class="st43" cx="3222.8" cy="4115.3" rx="160.8" ry="75.8"/>
<path class="st42" d="M3222.8,4184.1c-39.4,0-76.4-7.1-104.2-19.9c-28.1-13-43.6-30.3-43.6-48.9s15.5-35.9,43.6-48.9
	c27.9-12.9,64.9-19.9,104.2-19.9s76.4,7.1,104.2,19.9c28.1,13,43.7,30.4,43.7,48.9s-15.5,35.9-43.7,48.9
	C3299.2,4177,3262.2,4184.1,3222.8,4184.1z M3222.8,4048.8c-80.3,0-145.6,29.8-145.6,66.5s65.3,66.5,145.6,66.5
	s145.6-29.8,145.6-66.5S3303.1,4048.8,3222.8,4048.8z"/>
<ellipse class="st43" cx="3222.9" cy="4115.3" rx="143.2" ry="66"/>
<path class="st44" d="M3185.5,4147.8c0.9-4.9-7.8-9.9-7.8-9.9s-10.1,2.9-10.9,7.8c-0.8,4.4,6.2,8.9,7.6,9.7c-9-2-17.8-5-26.2-8.8
	c1.7-0.3,10.3-2.1,13-6.2c3.1-4.5-2.2-10.1-2.2-10.1s-10.2,1.7-13.3,6.2c-2.6,3.9,0.9,8.5,2,9.8c-5.9-2.7-11.4-6.2-16.3-10.5
	l0.7-0.1c-0.2-0.2-0.4-0.5-0.6-0.7c2.2-0.3,9.8-1.6,13-5.1c3.9-4.1,0.3-9.5,0.3-9.5s-9.8,1.1-13.7,5.2c-2.7,2.9-1.8,6.4-1,8.3
	c-0.6-0.5-1.3-0.9-2-1.3c-3.2-3.4-5.4-7.6-6.6-12.1c2.8,0,9.4-0.3,14.4-2.7c6.5-3,7.7-8.4,7.7-8.4s-9.2-0.4-15.7,2.6
	c-2.9,1.3-5.3,3.5-6.8,6.2c0-0.1,0-0.3-0.1-0.4c-0.5-4.5,0.3-9,2.3-13c1.5,0.1,8.8,0.6,15.3-1.5c4.2-1.3,7.9-3.7,10.7-7
	c0,0-8.3-0.9-15.6,1.5c-3.8,1.2-7.2,3.3-9.9,6.1c2.8-5.2,7.6-10,14-14.4c5,0.6,10,0.5,15-0.3c4.7-0.8,9.3-2.5,13.4-5.1
	c-5.3-0.7-10.7-0.7-16,0.2c-2.4,0.4-4.7,1.1-7,1.9c6.3-3.4,12.8-6.2,19.6-8.4c5.1,0.4,10.3,0,15.3-1.2c4.3-1,8.4-3,11.9-5.8
	c-5.3-0.4-10.6,0-15.8,1.1c-3.9,0.9-7.5,2.6-10.7,4.9c-6.8,2.1-13.4,4.8-19.8,8.1c0.5-0.5,1-1.1,1.4-1.8c2.1-3.9-1.3-8-1.3-8
	s-6.8,2.2-8.9,6.1s1.3,8,1.3,8l0.5-0.2c-4.7,3-8.8,6.9-12.2,11.4c0-1.2-0.4-2.3-1.1-3.2c-3-3.9-11.9-6.6-11.9-6.6s-4,3.5-1,7.3
	c2.7,3.4,10,6,11.6,6.5c-2.1,4.1-2.9,8.7-2.3,13.2c0.1,0.9,0.3,1.7,0.5,2.5l0,0c1,4.1,3,7.9,5.6,11.1c-1.9-0.8-3.9-1.4-6-1.7
	c-9-1.5-20.7,0.5-20.7,0.5s3.1,4.4,12.1,6c6.9,1.1,15.2,0.3,18.8-0.2c4,3.6,8.5,6.6,13.3,9c13.6,7.2,32.5,12.4,54.6,15.2l0.3-0.6
	c-7.9-1-15.8-2.4-23.5-4.2C3175.9,4155.2,3184.7,4152.4,3185.5,4147.8z"/>
<path class="st44" d="M3155.3,4152.4c-10.6-0.3-21.2,3.8-21.2,3.8s6.6,4.6,17.2,4.9s21.2-3.8,21.2-3.8S3166,4152.7,3155.3,4152.4z"
	/>
<path class="st44" d="M3130.4,4142.3c-10.2-0.6-21.1,2.8-21.1,2.8s5.5,4.3,15.7,4.9s21.1-2.9,21.1-2.9S3140.6,4142.9,3130.4,4142.3z
	"/>
<path class="st44" d="M3120.1,4121.1c0,0-0.8-4.2-8.4-6.7s-19.2-2-19.2-2s0.8,4.2,8.4,6.6S3120.1,4121.1,3120.1,4121.1z"/>
<path class="st44" d="M3290.4,4151.6c-10.6,0.3-17.2,4.9-17.2,4.9s10.6,4.1,21.2,3.8s17.2-4.9,17.2-4.9S3301,4151.3,3290.4,4151.6z"
	/>
<path class="st44" d="M3315.3,4141.5c-10.2,0.6-15.7,4.9-15.7,4.9s11,3.4,21.1,2.9s15.7-4.9,15.7-4.9S3325.4,4140.9,3315.3,4141.5z"
	/>
<path class="st44" d="M3326,4129.1c-2.1,0.3-4.1,0.9-6,1.7c2.7-3.2,4.6-7,5.6-11.1l0,0c0.2-0.8,0.4-1.7,0.5-2.5
	c0.5-4.5-0.3-9.1-2.3-13.2c1.6-0.5,8.9-3.1,11.6-6.5c3-3.9-1-7.4-1-7.4s-8.9,2.8-11.9,6.6c-0.7,0.9-1.1,2-1.1,3.2
	c-3.4-4.5-7.5-8.4-12.2-11.4l0.5,0.2c0,0,3.4-4.1,1.3-8s-8.9-6.1-8.9-6.1s-3.4,4.1-1.3,8c0.4,0.7,0.8,1.3,1.4,1.8
	c-6.3-3.3-13-6-19.8-8.1c-3.2-2.3-6.9-4-10.7-4.9c-5.2-1.2-10.5-1.5-15.8-1.1c3.5,2.8,7.5,4.8,11.9,5.8c5,1.1,10.2,1.5,15.3,1.2
	c6.8,2.2,13.3,5,19.6,8.4c-2.3-0.9-4.6-1.5-7-1.9c-5.3-0.9-10.7-0.9-16-0.2c4.1,2.5,8.6,4.3,13.4,5.1c5,0.8,10,0.9,15,0.3
	c6.5,4.4,11.2,9.2,14,14.4c-2.7-2.8-6.2-5-9.9-6.1c-7.3-2.4-15.6-1.5-15.6-1.5c2.8,3.3,6.5,5.7,10.7,7c6.5,2.1,13.8,1.6,15.3,1.5
	c2,4,2.8,8.5,2.3,13c0,0.1-0.1,0.3-0.1,0.4c-1.6-2.8-4-4.9-6.8-6.2c-6.5-3-15.7-2.6-15.7-2.6s1.3,5.3,7.7,8.4
	c5,2.4,11.6,2.6,14.4,2.7c-1.2,4.5-3.4,8.7-6.6,12.1c-0.7,0.4-1.4,0.8-2,1.3c0.8-1.9,1.8-5.4-1-8.3c-3.9-4.1-13.7-5.2-13.7-5.2
	s-3.5,5.5,0.3,9.5c3.3,3.4,10.8,4.8,13,5.1c-0.2,0.2-0.4,0.4-0.6,0.7l0.7,0.1c-4.9,4.3-10.4,7.8-16.3,10.5c1.1-1.2,4.6-5.9,2-9.8
	c-3.1-4.5-13.3-6.2-13.3-6.2s-5.3,5.6-2.2,10.1c2.8,4.1,11.4,5.9,13,6.2c-8.4,3.8-17.2,6.7-26.2,8.8c1.4-0.8,8.4-5.3,7.6-9.7
	c-0.9-4.9-10.9-7.8-10.9-7.8s-8.7,5-7.8,9.9c0.8,4.5,9.5,7.4,10.8,7.8c-7.8,1.8-15.6,3.2-23.5,4.2l0.3,0.6
	c22.1-2.8,40.9-8,54.6-15.2c4.8-2.4,9.2-5.5,13.3-9c3.6,0.5,12,1.4,18.8,0.2c9.1-1.5,12.1-6,12.1-6S3335,4127.6,3326,4129.1z"/>
<path class="st44" d="M3334,4113.7c-7.6,2.4-8.4,6.7-8.4,6.7s11.6,0.4,19.2-2.1s8.4-6.7,8.4-6.7S3341.6,4111.2,3334,4113.7z"/>
<ellipse class="st44" cx="3222.9" cy="4115.3" rx="45.3" ry="20.9"/>
<path class="st45" d="M2891.4,3780.8c-18.8-24.6-68.8-42.2-127.6-42.2s-108.8,17.6-127.6,42.2h-8v21.7c0,35.3,60.7,63.9,135.6,63.9
	s135.6-28.6,135.6-63.9v-21.7H2891.4z"/>
<ellipse class="st45" cx="2763.8" cy="3780.8" rx="135.6" ry="63.9"/>
<ellipse class="st46" cx="2763.8" cy="3780.8" rx="127.1" ry="59.9"/>
<path class="st45" d="M2731.3,3809.1c0.8-4.2-6.8-8.6-6.8-8.6s-8.8,2.6-9.5,6.8c-0.7,3.8,5.4,7.7,6.6,8.5
	c-7.8-1.8-15.5-4.3-22.8-7.6c1.4-0.3,8.9-1.8,11.3-5.4c2.7-3.9-1.9-8.8-1.9-8.8s-8.9,1.5-11.6,5.4c-2.3,3.4,0.8,7.4,1.7,8.5
	c-5.2-2.3-9.9-5.4-14.2-9.1l0.6-0.1c-0.2-0.2-0.3-0.4-0.5-0.6c2-0.3,8.5-1.4,11.3-4.4c3.4-3.5,0.3-8.3,0.3-8.3s-8.5,1-11.9,4.5
	c-2.4,2.5-1.5,5.6-0.8,7.2c-0.5-0.4-1.1-0.8-1.7-1.1c-2.7-3-4.7-6.6-5.7-10.6c2.4,0,8.2-0.3,12.5-2.3c5.6-2.6,6.7-7.3,6.7-7.3
	s-8-0.3-13.6,2.3c-2.5,1.1-4.6,3-6,5.4c0-0.1,0-0.2-0.1-0.4c-0.5-3.9,0.2-7.8,2-11.3c4.5,0.4,9-0.1,13.3-1.3
	c3.6-1.1,6.9-3.2,9.3-6.1c-4.6-0.4-9.2,0.1-13.6,1.3c-3.3,1-6.2,2.9-8.6,5.3c2.4-4.5,6.6-8.7,12.2-12.5c4.3,0.5,8.7,0.4,13-0.3
	c4.1-0.7,8.1-2.2,11.6-4.4c-4.6-0.6-9.3-0.6-13.9,0.2c-2.1,0.4-4.1,0.9-6.1,1.7c5.4-2.9,11.2-5.4,17.1-7.3c4.5,0.3,9,0,13.3-1
	c3.8-0.9,7.3-2.6,10.3-5.1c-4.6-0.4-9.2,0-13.8,1c-3.4,0.8-6.5,2.3-9.3,4.3c-5.9,1.8-11.7,4.2-17.2,7c0.5-0.5,0.9-1,1.2-1.5
	c1.8-3.4-1.1-6.9-1.1-6.9s-5.9,1.9-7.7,5.3s1.1,6.9,1.1,6.9l0.4-0.1c-4.1,2.6-7.7,6-10.6,9.9c0-1-0.3-2-1-2.8
	c-2.6-3.4-10.3-5.8-10.3-5.8s-3.5,3-0.9,6.4c2.3,3,8.6,5.2,10.1,5.7c-1.8,3.5-2.5,7.5-2,11.5c0.1,0.7,0.2,1.5,0.4,2.2l0,0
	c0.9,3.5,2.6,6.8,4.9,9.6c-1.7-0.7-3.4-1.2-5.2-1.5c-7.9-1.3-18,0.4-18,0.4s2.7,3.9,10.5,5.2c6,1,13.2,0.2,16.4-0.2
	c3.5,3.1,7.4,5.7,11.6,7.9c11.9,6.2,28.3,10.8,47.5,13.2l0.3-0.5c-6.9-0.8-13.7-2.1-20.5-3.6
	C2723,3815.6,2730.6,3813.1,2731.3,3809.1z"/>
<path class="st45" d="M2705.1,3813.1c-9.2-0.3-18.5,3.3-18.5,3.3c4.5,2.7,9.7,4.2,15,4.2c9.2,0.3,18.5-3.3,18.5-3.3
	C2715.6,3814.6,2710.4,3813.1,2705.1,3813.1z"/>
<path class="st45" d="M2683.4,3804.3c-8.9-0.5-18.4,2.5-18.4,2.5s4.8,3.8,13.6,4.3s18.4-2.5,18.4-2.5S2692.3,3804.8,2683.4,3804.3z"
	/>
<path class="st45" d="M2674.5,3785.9c0,0-0.7-3.7-7.3-5.8s-16.7-1.8-16.7-1.8s0.7,3.7,7.3,5.8S2674.5,3785.9,2674.5,3785.9z"/>
<path class="st45" d="M2822.5,3812.4c-5.3,0-10.5,1.5-15,4.2c0,0,9.2,3.6,18.5,3.3c5.3,0,10.5-1.5,15-4.2
	C2841,3815.8,2831.8,3812.2,2822.5,3812.4z"/>
<path class="st45" d="M2844.2,3803.6c-8.8,0.5-13.6,4.3-13.6,4.3s9.5,3,18.4,2.5s13.6-4.3,13.6-4.3S2853.1,3803.1,2844.2,3803.6z"/>
<path class="st45" d="M2853.5,3792.9c-1.8,0.3-3.6,0.8-5.2,1.5c2.3-2.8,4-6.1,4.9-9.6l0,0c0.2-0.7,0.3-1.5,0.4-2.2
	c0.5-3.9-0.2-7.9-2-11.5c1.4-0.5,7.7-2.7,10.1-5.7c2.6-3.4-0.9-6.4-0.9-6.4s-7.7,2.4-10.3,5.8c-0.7,0.8-1,1.7-1,2.8
	c-2.9-3.9-6.5-7.3-10.6-9.9l0.4,0.1c0,0,2.9-3.5,1.1-6.9s-7.7-5.3-7.7-5.3s-2.9,3.5-1.1,6.9c0.3,0.6,0.7,1.1,1.2,1.6
	c-5.5-2.8-11.3-5.2-17.2-7c-2.8-2-6-3.5-9.3-4.3c-4.5-1-9.1-1.4-13.8-1c3,2.5,6.5,4.2,10.3,5.1c4.4,1,8.9,1.3,13.3,1
	c5.9,1.9,11.6,4.3,17,7.3c-1.9-0.7-4-1.3-6-1.7c-4.6-0.7-9.3-0.8-13.9-0.2c3.6,2.2,7.5,3.7,11.6,4.4c4.3,0.7,8.7,0.8,13,0.3
	c5.6,3.8,9.8,8,12.2,12.5c-2.4-2.5-5.4-4.3-8.6-5.3c-4.4-1.2-9-1.7-13.6-1.3c2.5,2.9,5.7,5,9.3,6.1c4.3,1.2,8.8,1.7,13.3,1.3
	c1.8,3.5,2.5,7.4,2,11.3c0,0.1,0,0.3-0.1,0.4c-1.4-2.4-3.5-4.3-6-5.4c-5.6-2.6-13.6-2.3-13.6-2.3s1.1,4.6,6.7,7.3
	c4.3,2,10.1,2.3,12.5,2.3c-1,3.9-3,7.6-5.7,10.6c-0.6,0.3-1.2,0.7-1.7,1.1c0.7-1.6,1.5-4.7-0.8-7.2c-3.4-3.5-11.9-4.5-11.9-4.5
	s-3.1,4.8,0.3,8.3c2.9,3,9.4,4.1,11.3,4.4c-0.2,0.2-0.4,0.4-0.5,0.6l0.6,0.1c-4.3,3.7-9,6.8-14.2,9.1c0.9-1.1,4-5.1,1.7-8.5
	c-2.7-3.9-11.6-5.4-11.6-5.4s-4.6,4.9-1.9,8.8c2.4,3.5,9.9,5.1,11.3,5.4c-7.3,3.3-15,5.9-22.8,7.6c1.2-0.7,7.3-4.6,6.6-8.5
	c-0.7-4.2-9.5-6.8-9.5-6.8s-7.6,4.3-6.8,8.6c0.7,3.9,8.3,6.4,9.4,6.8c-6.8,1.6-13.6,2.8-20.5,3.6l0.3,0.5c19.2-2.4,35.6-7,47.5-13.2
	c4.2-2.1,8-4.8,11.6-7.9c3.1,0.4,10.4,1.2,16.4,0.2c7.9-1.3,10.5-5.2,10.5-5.2S2861.4,3791.6,2853.5,3792.9z"/>
<path class="st45" d="M2860.5,3779.4c-6.6,2.1-7.3,5.8-7.3,5.8s10.1,0.3,16.7-1.8s7.3-5.8,7.3-5.8S2867.1,3777.3,2860.5,3779.4z"/>
<ellipse class="st45" cx="2763.8" cy="3780.8" rx="39.4" ry="18.2"/>
<path class="st1" d="M3164.7,1557.4c-13,0-23.5-10.5-23.5-23.4c0-13,10.5-23.5,23.4-23.5c6.2,0,12.2,2.5,16.6,6.9l0,0
	c9.2,9.2,9.2,24,0,33.2C3176.9,1554.9,3170.9,1557.4,3164.7,1557.4z M3164.7,1516.1c-9.8,0-17.8,8-17.8,17.8c0,9.8,8,17.8,17.8,17.8
	s17.8-8,17.8-17.8c0-4.7-1.9-9.3-5.2-12.6C3174,1518,3169.4,1516.1,3164.7,1516.1z"/>
<polygon class="st1" points="3195.1,1568.5 3177.3,1550.5 3181.3,1546.5 3199.1,1564.5 "/>
<path class="st1" d="M3203,1572.4L3203,1572.4c-2,2-5.2,2-7.2,0c0,0,0,0,0,0l-14.9-14.9l7.2-7.2l14.9,14.9
	C3205,1567.2,3205,1570.4,3203,1572.4C3203,1572.4,3203,1572.4,3203,1572.4z"/>
<g class="st6">
	
		<linearGradient id="SVGID_00000127765726407705611420000005852260992245176244_" gradientUnits="userSpaceOnUse" x1="3475.0718" y1="1061.0264" x2="4907.252" y2="1748.2965" gradientTransform="matrix(1 0 0 -1 0 5000)">
		<stop  offset="0" style="stop-color:#969696"/>
		<stop  offset="1" style="stop-color:#FFFFFF"/>
	</linearGradient>
	
		<polygon style="opacity:0.5;fill:url(#SVGID_00000127765726407705611420000005852260992245176244_);enable-background:new    ;" points="
		4068,3425.4 3078.6,3861.1 3349.5,3933.9 3482,3933.6 3480.1,3969.3 3782.1,4058.8 4858.3,3543.3 	"/>
</g>
<path class="st48" d="M3249.8,3030.8c-3.1,0-5.8-2.4-6.1-5.5c-9.3-85.4,14.5-164.7,57.9-192.9c21.7-14.1,46.1-14.2,70.3-0.1
	c30.1,17.4,47.5,46.8,51.8,87.2c2.2,20.6,0.8,43.1-4.2,66.9c-0.1,0.7-0.2,1.2-0.3,1.5c-0.3,3.4-3.3,5.9-6.7,5.6
	c-3.1-0.3-5.5-2.8-5.6-5.8c0-1.3,0.2-2.5,0.5-3.8c6.5-31.3,15.4-107.8-41.8-141c-20.3-11.8-39.6-11.8-57.5-0.2
	c-18.4,12-33.8,35.9-43.5,67.5c-10.3,33.7-13.4,73-8.9,113.8c0.4,3.4-2.1,6.4-5.4,6.8C3250.2,3030.8,3250,3030.8,3249.8,3030.8z
	 M3419.2,2987L3419.2,2987z M3419.2,2987L3419.2,2987z"/>
<polygon class="st49" points="3123.3,3017.9 3289.6,3067.3 3512.6,2991.7 3703.3,2927.1 3546,2938.8 3508.4,2927.1 "/>
<polygon class="st49" points="3508.4,2927.1 3512.6,2991.7 3703.3,2927.1 3546,2938.8 "/>
<polygon class="st50" points="3287.8,3040.4 3349.5,3933.9 3078.6,3856.9 3123.3,3017.9 3249.8,3024.6 "/>
<polygon class="st51" points="3349.5,3933.9 3794.2,3700.3 3703.3,2927.1 3287.8,3040.4 "/>
<polygon class="st52" points="3249.8,3024.6 3225.9,3799.3 3349.5,3933.9 3287.8,3040.4 "/>
<polygon class="st51" points="3225.9,3799.3 3078.6,3856.9 3349.5,3933.9 "/>
<path class="st48" d="M3379.1,3044.1c-3.1,0-5.8-2.4-6.1-5.5c-9.9-91.3,15.5-176.1,61.8-206.3c23.1-15.1,49.1-15.1,74.9-0.1
	c32.1,18.6,50.7,50,55.3,93.1c2.3,22,0.8,46.1-4.4,71.5c-0.1,0.8-0.3,1.3-0.3,1.6c-0.3,3.4-3.3,5.9-6.7,5.5c-3-0.3-5.4-2.7-5.5-5.8
	c0-1.3,0.2-2.6,0.6-3.9c7-33.7,16.6-115.8-45-151.5c-21.6-12.5-43-12.6-62-0.2c-19.8,12.9-36.4,38.6-46.7,72.6
	c-11,36.1-14.3,78.3-9.6,122.1c0.4,3.4-2.1,6.4-5.4,6.8c0,0,0,0,0,0C3379.6,3044,3379.4,3044.1,3379.1,3044.1z M3560.3,2997.6
	L3560.3,2997.6z"/>
<polygon class="st53" points="3708,2983.3 3399.1,3067.3 3445.5,3883.4 3794.2,3700.3 "/>
<path class="st48" d="M3669.5,3053.1c-3.5,0-6.4-2.6-6.8-6.1c-10.2-94.4,16.1-182.1,64-213.3c24-15.6,50.9-15.7,77.8-0.1
	c33.3,19.3,52.6,51.8,57.3,96.5c2.4,22.8,0.9,47.6-4.6,73.9c-0.2,0.8-0.3,1.3-0.3,1.7c-0.4,3.7-3.7,6.4-7.5,6.1
	c-3.3-0.3-5.9-3-6.1-6.3c0-1.4,0.2-2.8,0.6-4.1c7.2-34.6,17.1-119.2-46.2-155.9c-22.4-13-43.8-13.1-63.5-0.2
	c-20.3,13.2-37.4,39.7-48,74.6c-11.4,37.2-14.8,80.7-9.9,125.8c0.4,3.7-2.3,7.1-6,7.5C3670,3053.1,3669.7,3053.1,3669.5,3053.1z
	 M3856.9,3004.6L3856.9,3004.6z"/>
<polygon class="st54" points="3529.6,3038.9 3713.6,3093.4 3960.1,3009.9 4170.9,2938.5 3997,2951.4 3955.4,2938.5 "/>
<polygon class="st54" points="3955.4,2938.5 3960.1,3009.9 4170.9,2938.5 3997,2951.4 "/>
<polygon class="st55" points="3711.5,3063.7 3779.7,4051.6 3480.2,3966.5 3529.6,3038.9 3669.5,3046.3 "/>
<polygon class="st56" points="3779.7,4051.6 4271.4,3793.4 4170.9,2938.5 3711.5,3063.7 "/>
<polygon class="st57" points="3669.5,3046.3 3643.1,3902.8 3779.7,4051.6 3711.5,3063.7 "/>
<polygon class="st56" points="3643.1,3902.8 3480.2,3966.5 3779.7,4051.6 "/>
<path class="st48" d="M3812.5,3067.7c-3.5,0-6.4-2.6-6.8-6.1c-10.9-101,17.2-194.8,68.4-228.1c25.6-16.7,54.2-16.7,82.8-0.1
	c35.5,20.6,56.1,55.2,61.1,103c2.6,24.3,0.9,50.9-4.9,79.1c-0.2,0.8-0.3,1.4-0.4,1.8c-0.3,3.7-3.6,6.5-7.3,6.2
	c-3.4-0.3-6.1-3.1-6.2-6.5c0-1.5,0.2-2.9,0.6-4.3c7.7-37.2,18.3-128.1-49.7-167.5c-23.9-13.8-47.6-13.9-68.6-0.2
	c-21.9,14.2-40.2,42.7-51.7,80.2c-12.2,39.9-15.9,86.6-10.6,135c0.4,3.7-2.3,7.1-6,7.5C3813,3067.8,3812.8,3067.8,3812.5,3067.7z
	 M4012.8,3016.3L4012.8,3016.3z"/>
</svg>
